%TF.GenerationSoftware,KiCad,Pcbnew,7.0.2*%
%TF.CreationDate,2023-07-12T23:30:24-04:00*%
%TF.ProjectId,Anti-Spark Switch,416e7469-2d53-4706-9172-6b2053776974,rev?*%
%TF.SameCoordinates,Original*%
%TF.FileFunction,Drillmap*%
%TF.FilePolarity,Positive*%
%FSLAX45Y45*%
G04 Gerber Fmt 4.5, Leading zero omitted, Abs format (unit mm)*
G04 Created by KiCad (PCBNEW 7.0.2) date 2023-07-12 23:30:24*
%MOMM*%
%LPD*%
G01*
G04 APERTURE LIST*
%ADD10C,0.100000*%
%ADD11C,0.200000*%
%ADD12C,0.040000*%
%ADD13C,0.060000*%
%ADD14C,0.075000*%
%ADD15C,0.270000*%
G04 APERTURE END LIST*
D10*
X10795000Y-8699500D02*
X19431000Y-8699500D01*
X19431000Y-12255500D01*
X10795000Y-12255500D01*
X10795000Y-8699500D01*
D11*
D12*
X10965500Y-8870000D02*
X11005500Y-8910000D01*
X11005500Y-8870000D02*
X10965500Y-8910000D01*
X10965500Y-8997000D02*
X11005500Y-9037000D01*
X11005500Y-8997000D02*
X10965500Y-9037000D01*
X10965500Y-9124000D02*
X11005500Y-9164000D01*
X11005500Y-9124000D02*
X10965500Y-9164000D01*
X10965500Y-9251000D02*
X11005500Y-9291000D01*
X11005500Y-9251000D02*
X10965500Y-9291000D01*
X10965500Y-9378000D02*
X11005500Y-9418000D01*
X11005500Y-9378000D02*
X10965500Y-9418000D01*
X10965500Y-9505000D02*
X11005500Y-9545000D01*
X11005500Y-9505000D02*
X10965500Y-9545000D01*
X10965500Y-11410000D02*
X11005500Y-11450000D01*
X11005500Y-11410000D02*
X10965500Y-11450000D01*
X10965500Y-11537000D02*
X11005500Y-11577000D01*
X11005500Y-11537000D02*
X10965500Y-11577000D01*
X10965500Y-11664000D02*
X11005500Y-11704000D01*
X11005500Y-11664000D02*
X10965500Y-11704000D01*
X10965500Y-11791000D02*
X11005500Y-11831000D01*
X11005500Y-11791000D02*
X10965500Y-11831000D01*
X10965500Y-11918000D02*
X11005500Y-11958000D01*
X11005500Y-11918000D02*
X10965500Y-11958000D01*
X10965500Y-12045000D02*
X11005500Y-12085000D01*
X11005500Y-12045000D02*
X10965500Y-12085000D01*
X11092500Y-8870000D02*
X11132500Y-8910000D01*
X11132500Y-8870000D02*
X11092500Y-8910000D01*
X11092500Y-8997000D02*
X11132500Y-9037000D01*
X11132500Y-8997000D02*
X11092500Y-9037000D01*
X11092500Y-9124000D02*
X11132500Y-9164000D01*
X11132500Y-9124000D02*
X11092500Y-9164000D01*
X11092500Y-9251000D02*
X11132500Y-9291000D01*
X11132500Y-9251000D02*
X11092500Y-9291000D01*
X11092500Y-9378000D02*
X11132500Y-9418000D01*
X11132500Y-9378000D02*
X11092500Y-9418000D01*
X11092500Y-9505000D02*
X11132500Y-9545000D01*
X11132500Y-9505000D02*
X11092500Y-9545000D01*
X11092500Y-11410000D02*
X11132500Y-11450000D01*
X11132500Y-11410000D02*
X11092500Y-11450000D01*
X11092500Y-11537000D02*
X11132500Y-11577000D01*
X11132500Y-11537000D02*
X11092500Y-11577000D01*
X11092500Y-11664000D02*
X11132500Y-11704000D01*
X11132500Y-11664000D02*
X11092500Y-11704000D01*
X11092500Y-11791000D02*
X11132500Y-11831000D01*
X11132500Y-11791000D02*
X11092500Y-11831000D01*
X11092500Y-11918000D02*
X11132500Y-11958000D01*
X11132500Y-11918000D02*
X11092500Y-11958000D01*
X11092500Y-12045000D02*
X11132500Y-12085000D01*
X11132500Y-12045000D02*
X11092500Y-12085000D01*
X11219500Y-8870000D02*
X11259500Y-8910000D01*
X11259500Y-8870000D02*
X11219500Y-8910000D01*
X11219500Y-8997000D02*
X11259500Y-9037000D01*
X11259500Y-8997000D02*
X11219500Y-9037000D01*
X11219500Y-9124000D02*
X11259500Y-9164000D01*
X11259500Y-9124000D02*
X11219500Y-9164000D01*
X11219500Y-9251000D02*
X11259500Y-9291000D01*
X11259500Y-9251000D02*
X11219500Y-9291000D01*
X11219500Y-9378000D02*
X11259500Y-9418000D01*
X11259500Y-9378000D02*
X11219500Y-9418000D01*
X11219500Y-9505000D02*
X11259500Y-9545000D01*
X11259500Y-9505000D02*
X11219500Y-9545000D01*
X11219500Y-11410000D02*
X11259500Y-11450000D01*
X11259500Y-11410000D02*
X11219500Y-11450000D01*
X11219500Y-11537000D02*
X11259500Y-11577000D01*
X11259500Y-11537000D02*
X11219500Y-11577000D01*
X11219500Y-11664000D02*
X11259500Y-11704000D01*
X11259500Y-11664000D02*
X11219500Y-11704000D01*
X11219500Y-11791000D02*
X11259500Y-11831000D01*
X11259500Y-11791000D02*
X11219500Y-11831000D01*
X11219500Y-11918000D02*
X11259500Y-11958000D01*
X11259500Y-11918000D02*
X11219500Y-11958000D01*
X11219500Y-12045000D02*
X11259500Y-12085000D01*
X11259500Y-12045000D02*
X11219500Y-12085000D01*
X11346500Y-8870000D02*
X11386500Y-8910000D01*
X11386500Y-8870000D02*
X11346500Y-8910000D01*
X11346500Y-8997000D02*
X11386500Y-9037000D01*
X11386500Y-8997000D02*
X11346500Y-9037000D01*
X11346500Y-9124000D02*
X11386500Y-9164000D01*
X11386500Y-9124000D02*
X11346500Y-9164000D01*
X11346500Y-9251000D02*
X11386500Y-9291000D01*
X11386500Y-9251000D02*
X11346500Y-9291000D01*
X11346500Y-9378000D02*
X11386500Y-9418000D01*
X11386500Y-9378000D02*
X11346500Y-9418000D01*
X11346500Y-9505000D02*
X11386500Y-9545000D01*
X11386500Y-9505000D02*
X11346500Y-9545000D01*
X11346500Y-11410000D02*
X11386500Y-11450000D01*
X11386500Y-11410000D02*
X11346500Y-11450000D01*
X11346500Y-11537000D02*
X11386500Y-11577000D01*
X11386500Y-11537000D02*
X11346500Y-11577000D01*
X11346500Y-11664000D02*
X11386500Y-11704000D01*
X11386500Y-11664000D02*
X11346500Y-11704000D01*
X11346500Y-11791000D02*
X11386500Y-11831000D01*
X11386500Y-11791000D02*
X11346500Y-11831000D01*
X11346500Y-11918000D02*
X11386500Y-11958000D01*
X11386500Y-11918000D02*
X11346500Y-11958000D01*
X11346500Y-12045000D02*
X11386500Y-12085000D01*
X11386500Y-12045000D02*
X11346500Y-12085000D01*
X11473500Y-8870000D02*
X11513500Y-8910000D01*
X11513500Y-8870000D02*
X11473500Y-8910000D01*
X11473500Y-8997000D02*
X11513500Y-9037000D01*
X11513500Y-8997000D02*
X11473500Y-9037000D01*
X11473500Y-9124000D02*
X11513500Y-9164000D01*
X11513500Y-9124000D02*
X11473500Y-9164000D01*
X11473500Y-9251000D02*
X11513500Y-9291000D01*
X11513500Y-9251000D02*
X11473500Y-9291000D01*
X11473500Y-9378000D02*
X11513500Y-9418000D01*
X11513500Y-9378000D02*
X11473500Y-9418000D01*
X11473500Y-9505000D02*
X11513500Y-9545000D01*
X11513500Y-9505000D02*
X11473500Y-9545000D01*
X11473500Y-11410000D02*
X11513500Y-11450000D01*
X11513500Y-11410000D02*
X11473500Y-11450000D01*
X11473500Y-11537000D02*
X11513500Y-11577000D01*
X11513500Y-11537000D02*
X11473500Y-11577000D01*
X11473500Y-11664000D02*
X11513500Y-11704000D01*
X11513500Y-11664000D02*
X11473500Y-11704000D01*
X11473500Y-11791000D02*
X11513500Y-11831000D01*
X11513500Y-11791000D02*
X11473500Y-11831000D01*
X11473500Y-11918000D02*
X11513500Y-11958000D01*
X11513500Y-11918000D02*
X11473500Y-11958000D01*
X11473500Y-12045000D02*
X11513500Y-12085000D01*
X11513500Y-12045000D02*
X11473500Y-12085000D01*
X11600500Y-8870000D02*
X11640500Y-8910000D01*
X11640500Y-8870000D02*
X11600500Y-8910000D01*
X11600500Y-8997000D02*
X11640500Y-9037000D01*
X11640500Y-8997000D02*
X11600500Y-9037000D01*
X11600500Y-9124000D02*
X11640500Y-9164000D01*
X11640500Y-9124000D02*
X11600500Y-9164000D01*
X11600500Y-9251000D02*
X11640500Y-9291000D01*
X11640500Y-9251000D02*
X11600500Y-9291000D01*
X11600500Y-9378000D02*
X11640500Y-9418000D01*
X11640500Y-9378000D02*
X11600500Y-9418000D01*
X11600500Y-9505000D02*
X11640500Y-9545000D01*
X11640500Y-9505000D02*
X11600500Y-9545000D01*
X11600500Y-11410000D02*
X11640500Y-11450000D01*
X11640500Y-11410000D02*
X11600500Y-11450000D01*
X11600500Y-11537000D02*
X11640500Y-11577000D01*
X11640500Y-11537000D02*
X11600500Y-11577000D01*
X11600500Y-11664000D02*
X11640500Y-11704000D01*
X11640500Y-11664000D02*
X11600500Y-11704000D01*
X11600500Y-11791000D02*
X11640500Y-11831000D01*
X11640500Y-11791000D02*
X11600500Y-11831000D01*
X11600500Y-11918000D02*
X11640500Y-11958000D01*
X11640500Y-11918000D02*
X11600500Y-11958000D01*
X11600500Y-12045000D02*
X11640500Y-12085000D01*
X11640500Y-12045000D02*
X11600500Y-12085000D01*
X11727500Y-8870000D02*
X11767500Y-8910000D01*
X11767500Y-8870000D02*
X11727500Y-8910000D01*
X11727500Y-8997000D02*
X11767500Y-9037000D01*
X11767500Y-8997000D02*
X11727500Y-9037000D01*
X11727500Y-9124000D02*
X11767500Y-9164000D01*
X11767500Y-9124000D02*
X11727500Y-9164000D01*
X11727500Y-9251000D02*
X11767500Y-9291000D01*
X11767500Y-9251000D02*
X11727500Y-9291000D01*
X11727500Y-9378000D02*
X11767500Y-9418000D01*
X11767500Y-9378000D02*
X11727500Y-9418000D01*
X11727500Y-9505000D02*
X11767500Y-9545000D01*
X11767500Y-9505000D02*
X11727500Y-9545000D01*
X11727500Y-11410000D02*
X11767500Y-11450000D01*
X11767500Y-11410000D02*
X11727500Y-11450000D01*
X11727500Y-11537000D02*
X11767500Y-11577000D01*
X11767500Y-11537000D02*
X11727500Y-11577000D01*
X11727500Y-11664000D02*
X11767500Y-11704000D01*
X11767500Y-11664000D02*
X11727500Y-11704000D01*
X11727500Y-11791000D02*
X11767500Y-11831000D01*
X11767500Y-11791000D02*
X11727500Y-11831000D01*
X11727500Y-11918000D02*
X11767500Y-11958000D01*
X11767500Y-11918000D02*
X11727500Y-11958000D01*
X11727500Y-12045000D02*
X11767500Y-12085000D01*
X11767500Y-12045000D02*
X11727500Y-12085000D01*
X11854500Y-8870000D02*
X11894500Y-8910000D01*
X11894500Y-8870000D02*
X11854500Y-8910000D01*
X11854500Y-8997000D02*
X11894500Y-9037000D01*
X11894500Y-8997000D02*
X11854500Y-9037000D01*
X11854500Y-9124000D02*
X11894500Y-9164000D01*
X11894500Y-9124000D02*
X11854500Y-9164000D01*
X11854500Y-9251000D02*
X11894500Y-9291000D01*
X11894500Y-9251000D02*
X11854500Y-9291000D01*
X11854500Y-9378000D02*
X11894500Y-9418000D01*
X11894500Y-9378000D02*
X11854500Y-9418000D01*
X11854500Y-9505000D02*
X11894500Y-9545000D01*
X11894500Y-9505000D02*
X11854500Y-9545000D01*
X11854500Y-11410000D02*
X11894500Y-11450000D01*
X11894500Y-11410000D02*
X11854500Y-11450000D01*
X11854500Y-11537000D02*
X11894500Y-11577000D01*
X11894500Y-11537000D02*
X11854500Y-11577000D01*
X11854500Y-11664000D02*
X11894500Y-11704000D01*
X11894500Y-11664000D02*
X11854500Y-11704000D01*
X11854500Y-11791000D02*
X11894500Y-11831000D01*
X11894500Y-11791000D02*
X11854500Y-11831000D01*
X11854500Y-11918000D02*
X11894500Y-11958000D01*
X11894500Y-11918000D02*
X11854500Y-11958000D01*
X11854500Y-12045000D02*
X11894500Y-12085000D01*
X11894500Y-12045000D02*
X11854500Y-12085000D01*
X11981500Y-8870000D02*
X12021500Y-8910000D01*
X12021500Y-8870000D02*
X11981500Y-8910000D01*
X11981500Y-8997000D02*
X12021500Y-9037000D01*
X12021500Y-8997000D02*
X11981500Y-9037000D01*
X11981500Y-9124000D02*
X12021500Y-9164000D01*
X12021500Y-9124000D02*
X11981500Y-9164000D01*
X11981500Y-9251000D02*
X12021500Y-9291000D01*
X12021500Y-9251000D02*
X11981500Y-9291000D01*
X11981500Y-9378000D02*
X12021500Y-9418000D01*
X12021500Y-9378000D02*
X11981500Y-9418000D01*
X11981500Y-9505000D02*
X12021500Y-9545000D01*
X12021500Y-9505000D02*
X11981500Y-9545000D01*
X11981500Y-11410000D02*
X12021500Y-11450000D01*
X12021500Y-11410000D02*
X11981500Y-11450000D01*
X11981500Y-11537000D02*
X12021500Y-11577000D01*
X12021500Y-11537000D02*
X11981500Y-11577000D01*
X11981500Y-11664000D02*
X12021500Y-11704000D01*
X12021500Y-11664000D02*
X11981500Y-11704000D01*
X11981500Y-11791000D02*
X12021500Y-11831000D01*
X12021500Y-11791000D02*
X11981500Y-11831000D01*
X11981500Y-11918000D02*
X12021500Y-11958000D01*
X12021500Y-11918000D02*
X11981500Y-11958000D01*
X11981500Y-12045000D02*
X12021500Y-12085000D01*
X12021500Y-12045000D02*
X11981500Y-12085000D01*
X12108500Y-8870000D02*
X12148500Y-8910000D01*
X12148500Y-8870000D02*
X12108500Y-8910000D01*
X12108500Y-8997000D02*
X12148500Y-9037000D01*
X12148500Y-8997000D02*
X12108500Y-9037000D01*
X12108500Y-9124000D02*
X12148500Y-9164000D01*
X12148500Y-9124000D02*
X12108500Y-9164000D01*
X12108500Y-9251000D02*
X12148500Y-9291000D01*
X12148500Y-9251000D02*
X12108500Y-9291000D01*
X12108500Y-9378000D02*
X12148500Y-9418000D01*
X12148500Y-9378000D02*
X12108500Y-9418000D01*
X12108500Y-9505000D02*
X12148500Y-9545000D01*
X12148500Y-9505000D02*
X12108500Y-9545000D01*
X12108500Y-11410000D02*
X12148500Y-11450000D01*
X12148500Y-11410000D02*
X12108500Y-11450000D01*
X12108500Y-11537000D02*
X12148500Y-11577000D01*
X12148500Y-11537000D02*
X12108500Y-11577000D01*
X12108500Y-11664000D02*
X12148500Y-11704000D01*
X12148500Y-11664000D02*
X12108500Y-11704000D01*
X12108500Y-11791000D02*
X12148500Y-11831000D01*
X12148500Y-11791000D02*
X12108500Y-11831000D01*
X12108500Y-11918000D02*
X12148500Y-11958000D01*
X12148500Y-11918000D02*
X12108500Y-11958000D01*
X12108500Y-12045000D02*
X12148500Y-12085000D01*
X12148500Y-12045000D02*
X12108500Y-12085000D01*
X13670600Y-10889300D02*
X13710600Y-10929300D01*
X13710600Y-10889300D02*
X13670600Y-10929300D01*
X14204000Y-9886000D02*
X14244000Y-9926000D01*
X14244000Y-9886000D02*
X14204000Y-9926000D01*
X14204000Y-10013000D02*
X14244000Y-10053000D01*
X14244000Y-10013000D02*
X14204000Y-10053000D01*
X14204000Y-10140000D02*
X14244000Y-10180000D01*
X14244000Y-10140000D02*
X14204000Y-10180000D01*
X14204000Y-10267000D02*
X14244000Y-10307000D01*
X14244000Y-10267000D02*
X14204000Y-10307000D01*
X14204000Y-10394000D02*
X14244000Y-10434000D01*
X14244000Y-10394000D02*
X14204000Y-10434000D01*
X14331000Y-9886000D02*
X14371000Y-9926000D01*
X14371000Y-9886000D02*
X14331000Y-9926000D01*
X14331000Y-10013000D02*
X14371000Y-10053000D01*
X14371000Y-10013000D02*
X14331000Y-10053000D01*
X14331000Y-10140000D02*
X14371000Y-10180000D01*
X14371000Y-10140000D02*
X14331000Y-10180000D01*
X14331000Y-10267000D02*
X14371000Y-10307000D01*
X14371000Y-10267000D02*
X14331000Y-10307000D01*
X14331000Y-10394000D02*
X14371000Y-10434000D01*
X14371000Y-10394000D02*
X14331000Y-10434000D01*
X14458000Y-9886000D02*
X14498000Y-9926000D01*
X14498000Y-9886000D02*
X14458000Y-9926000D01*
X14458000Y-10013000D02*
X14498000Y-10053000D01*
X14498000Y-10013000D02*
X14458000Y-10053000D01*
X14458000Y-10140000D02*
X14498000Y-10180000D01*
X14498000Y-10140000D02*
X14458000Y-10180000D01*
X14458000Y-10267000D02*
X14498000Y-10307000D01*
X14498000Y-10267000D02*
X14458000Y-10307000D01*
X14458000Y-10394000D02*
X14498000Y-10434000D01*
X14498000Y-10394000D02*
X14458000Y-10434000D01*
X14458000Y-10775000D02*
X14498000Y-10815000D01*
X14498000Y-10775000D02*
X14458000Y-10815000D01*
X14458000Y-10902000D02*
X14498000Y-10942000D01*
X14498000Y-10902000D02*
X14458000Y-10942000D01*
X14458000Y-11029000D02*
X14498000Y-11069000D01*
X14498000Y-11029000D02*
X14458000Y-11069000D01*
X14458000Y-11156000D02*
X14498000Y-11196000D01*
X14498000Y-11156000D02*
X14458000Y-11196000D01*
X14458000Y-11283000D02*
X14498000Y-11323000D01*
X14498000Y-11283000D02*
X14458000Y-11323000D01*
X14458000Y-11410000D02*
X14498000Y-11450000D01*
X14498000Y-11410000D02*
X14458000Y-11450000D01*
X14458000Y-11537000D02*
X14498000Y-11577000D01*
X14498000Y-11537000D02*
X14458000Y-11577000D01*
X14458000Y-11664000D02*
X14498000Y-11704000D01*
X14498000Y-11664000D02*
X14458000Y-11704000D01*
X14585000Y-9886000D02*
X14625000Y-9926000D01*
X14625000Y-9886000D02*
X14585000Y-9926000D01*
X14585000Y-10013000D02*
X14625000Y-10053000D01*
X14625000Y-10013000D02*
X14585000Y-10053000D01*
X14585000Y-10140000D02*
X14625000Y-10180000D01*
X14625000Y-10140000D02*
X14585000Y-10180000D01*
X14585000Y-10267000D02*
X14625000Y-10307000D01*
X14625000Y-10267000D02*
X14585000Y-10307000D01*
X14585000Y-10394000D02*
X14625000Y-10434000D01*
X14625000Y-10394000D02*
X14585000Y-10434000D01*
X14585000Y-10775000D02*
X14625000Y-10815000D01*
X14625000Y-10775000D02*
X14585000Y-10815000D01*
X14585000Y-10902000D02*
X14625000Y-10942000D01*
X14625000Y-10902000D02*
X14585000Y-10942000D01*
X14585000Y-11029000D02*
X14625000Y-11069000D01*
X14625000Y-11029000D02*
X14585000Y-11069000D01*
X14585000Y-11156000D02*
X14625000Y-11196000D01*
X14625000Y-11156000D02*
X14585000Y-11196000D01*
X14585000Y-11283000D02*
X14625000Y-11323000D01*
X14625000Y-11283000D02*
X14585000Y-11323000D01*
X14585000Y-11410000D02*
X14625000Y-11450000D01*
X14625000Y-11410000D02*
X14585000Y-11450000D01*
X14585000Y-11537000D02*
X14625000Y-11577000D01*
X14625000Y-11537000D02*
X14585000Y-11577000D01*
X14585000Y-11664000D02*
X14625000Y-11704000D01*
X14625000Y-11664000D02*
X14585000Y-11704000D01*
X14712000Y-9886000D02*
X14752000Y-9926000D01*
X14752000Y-9886000D02*
X14712000Y-9926000D01*
X14712000Y-10013000D02*
X14752000Y-10053000D01*
X14752000Y-10013000D02*
X14712000Y-10053000D01*
X14712000Y-10140000D02*
X14752000Y-10180000D01*
X14752000Y-10140000D02*
X14712000Y-10180000D01*
X14712000Y-10267000D02*
X14752000Y-10307000D01*
X14752000Y-10267000D02*
X14712000Y-10307000D01*
X14712000Y-10394000D02*
X14752000Y-10434000D01*
X14752000Y-10394000D02*
X14712000Y-10434000D01*
X14712000Y-11029000D02*
X14752000Y-11069000D01*
X14752000Y-11029000D02*
X14712000Y-11069000D01*
X14712000Y-11156000D02*
X14752000Y-11196000D01*
X14752000Y-11156000D02*
X14712000Y-11196000D01*
X14712000Y-11283000D02*
X14752000Y-11323000D01*
X14752000Y-11283000D02*
X14712000Y-11323000D01*
X14712000Y-11410000D02*
X14752000Y-11450000D01*
X14752000Y-11410000D02*
X14712000Y-11450000D01*
X14712000Y-11537000D02*
X14752000Y-11577000D01*
X14752000Y-11537000D02*
X14712000Y-11577000D01*
X14712000Y-11664000D02*
X14752000Y-11704000D01*
X14752000Y-11664000D02*
X14712000Y-11704000D01*
X14839000Y-9886000D02*
X14879000Y-9926000D01*
X14879000Y-9886000D02*
X14839000Y-9926000D01*
X14839000Y-10013000D02*
X14879000Y-10053000D01*
X14879000Y-10013000D02*
X14839000Y-10053000D01*
X14839000Y-10140000D02*
X14879000Y-10180000D01*
X14879000Y-10140000D02*
X14839000Y-10180000D01*
X14839000Y-10267000D02*
X14879000Y-10307000D01*
X14879000Y-10267000D02*
X14839000Y-10307000D01*
X14839000Y-10394000D02*
X14879000Y-10434000D01*
X14879000Y-10394000D02*
X14839000Y-10434000D01*
X14839000Y-10775000D02*
X14879000Y-10815000D01*
X14879000Y-10775000D02*
X14839000Y-10815000D01*
X14839000Y-10902000D02*
X14879000Y-10942000D01*
X14879000Y-10902000D02*
X14839000Y-10942000D01*
X14839000Y-11029000D02*
X14879000Y-11069000D01*
X14879000Y-11029000D02*
X14839000Y-11069000D01*
X14839000Y-11156000D02*
X14879000Y-11196000D01*
X14879000Y-11156000D02*
X14839000Y-11196000D01*
X14839000Y-11283000D02*
X14879000Y-11323000D01*
X14879000Y-11283000D02*
X14839000Y-11323000D01*
X14839000Y-11410000D02*
X14879000Y-11450000D01*
X14879000Y-11410000D02*
X14839000Y-11450000D01*
X14839000Y-11537000D02*
X14879000Y-11577000D01*
X14879000Y-11537000D02*
X14839000Y-11577000D01*
X14839000Y-11664000D02*
X14879000Y-11704000D01*
X14879000Y-11664000D02*
X14839000Y-11704000D01*
X14966000Y-9886000D02*
X15006000Y-9926000D01*
X15006000Y-9886000D02*
X14966000Y-9926000D01*
X14966000Y-10013000D02*
X15006000Y-10053000D01*
X15006000Y-10013000D02*
X14966000Y-10053000D01*
X14966000Y-10140000D02*
X15006000Y-10180000D01*
X15006000Y-10140000D02*
X14966000Y-10180000D01*
X14966000Y-10267000D02*
X15006000Y-10307000D01*
X15006000Y-10267000D02*
X14966000Y-10307000D01*
X14966000Y-10394000D02*
X15006000Y-10434000D01*
X15006000Y-10394000D02*
X14966000Y-10434000D01*
X14966000Y-11029000D02*
X15006000Y-11069000D01*
X15006000Y-11029000D02*
X14966000Y-11069000D01*
X14966000Y-11156000D02*
X15006000Y-11196000D01*
X15006000Y-11156000D02*
X14966000Y-11196000D01*
X14966000Y-11283000D02*
X15006000Y-11323000D01*
X15006000Y-11283000D02*
X14966000Y-11323000D01*
X14966000Y-11410000D02*
X15006000Y-11450000D01*
X15006000Y-11410000D02*
X14966000Y-11450000D01*
X14966000Y-11537000D02*
X15006000Y-11577000D01*
X15006000Y-11537000D02*
X14966000Y-11577000D01*
X14966000Y-11664000D02*
X15006000Y-11704000D01*
X15006000Y-11664000D02*
X14966000Y-11704000D01*
X15093000Y-9886000D02*
X15133000Y-9926000D01*
X15133000Y-9886000D02*
X15093000Y-9926000D01*
X15093000Y-10013000D02*
X15133000Y-10053000D01*
X15133000Y-10013000D02*
X15093000Y-10053000D01*
X15093000Y-10140000D02*
X15133000Y-10180000D01*
X15133000Y-10140000D02*
X15093000Y-10180000D01*
X15093000Y-10267000D02*
X15133000Y-10307000D01*
X15133000Y-10267000D02*
X15093000Y-10307000D01*
X15093000Y-10394000D02*
X15133000Y-10434000D01*
X15133000Y-10394000D02*
X15093000Y-10434000D01*
X15220000Y-9886000D02*
X15260000Y-9926000D01*
X15260000Y-9886000D02*
X15220000Y-9926000D01*
X15220000Y-10013000D02*
X15260000Y-10053000D01*
X15260000Y-10013000D02*
X15220000Y-10053000D01*
X15220000Y-10140000D02*
X15260000Y-10180000D01*
X15260000Y-10140000D02*
X15220000Y-10180000D01*
X15220000Y-10267000D02*
X15260000Y-10307000D01*
X15260000Y-10267000D02*
X15220000Y-10307000D01*
X15220000Y-10394000D02*
X15260000Y-10434000D01*
X15260000Y-10394000D02*
X15220000Y-10434000D01*
X15283500Y-10775000D02*
X15323500Y-10815000D01*
X15323500Y-10775000D02*
X15283500Y-10815000D01*
X15283500Y-10902000D02*
X15323500Y-10942000D01*
X15323500Y-10902000D02*
X15283500Y-10942000D01*
X15283500Y-11029000D02*
X15323500Y-11069000D01*
X15323500Y-11029000D02*
X15283500Y-11069000D01*
X15283500Y-11156000D02*
X15323500Y-11196000D01*
X15323500Y-11156000D02*
X15283500Y-11196000D01*
X15283500Y-11283000D02*
X15323500Y-11323000D01*
X15323500Y-11283000D02*
X15283500Y-11323000D01*
X15283500Y-11410000D02*
X15323500Y-11450000D01*
X15323500Y-11410000D02*
X15283500Y-11450000D01*
X15283500Y-11537000D02*
X15323500Y-11577000D01*
X15323500Y-11537000D02*
X15283500Y-11577000D01*
X15283500Y-11664000D02*
X15323500Y-11704000D01*
X15323500Y-11664000D02*
X15283500Y-11704000D01*
X15347000Y-9886000D02*
X15387000Y-9926000D01*
X15387000Y-9886000D02*
X15347000Y-9926000D01*
X15347000Y-10013000D02*
X15387000Y-10053000D01*
X15387000Y-10013000D02*
X15347000Y-10053000D01*
X15347000Y-10140000D02*
X15387000Y-10180000D01*
X15387000Y-10140000D02*
X15347000Y-10180000D01*
X15347000Y-10267000D02*
X15387000Y-10307000D01*
X15387000Y-10267000D02*
X15347000Y-10307000D01*
X15347000Y-10394000D02*
X15387000Y-10434000D01*
X15387000Y-10394000D02*
X15347000Y-10434000D01*
X15410500Y-10775000D02*
X15450500Y-10815000D01*
X15450500Y-10775000D02*
X15410500Y-10815000D01*
X15410500Y-10902000D02*
X15450500Y-10942000D01*
X15450500Y-10902000D02*
X15410500Y-10942000D01*
X15410500Y-11029000D02*
X15450500Y-11069000D01*
X15450500Y-11029000D02*
X15410500Y-11069000D01*
X15410500Y-11156000D02*
X15450500Y-11196000D01*
X15450500Y-11156000D02*
X15410500Y-11196000D01*
X15410500Y-11283000D02*
X15450500Y-11323000D01*
X15450500Y-11283000D02*
X15410500Y-11323000D01*
X15410500Y-11410000D02*
X15450500Y-11450000D01*
X15450500Y-11410000D02*
X15410500Y-11450000D01*
X15410500Y-11537000D02*
X15450500Y-11577000D01*
X15450500Y-11537000D02*
X15410500Y-11577000D01*
X15410500Y-11664000D02*
X15450500Y-11704000D01*
X15450500Y-11664000D02*
X15410500Y-11704000D01*
X15474000Y-9886000D02*
X15514000Y-9926000D01*
X15514000Y-9886000D02*
X15474000Y-9926000D01*
X15474000Y-10013000D02*
X15514000Y-10053000D01*
X15514000Y-10013000D02*
X15474000Y-10053000D01*
X15474000Y-10140000D02*
X15514000Y-10180000D01*
X15514000Y-10140000D02*
X15474000Y-10180000D01*
X15474000Y-10267000D02*
X15514000Y-10307000D01*
X15514000Y-10267000D02*
X15474000Y-10307000D01*
X15474000Y-10394000D02*
X15514000Y-10434000D01*
X15514000Y-10394000D02*
X15474000Y-10434000D01*
X15537500Y-11029000D02*
X15577500Y-11069000D01*
X15577500Y-11029000D02*
X15537500Y-11069000D01*
X15537500Y-11156000D02*
X15577500Y-11196000D01*
X15577500Y-11156000D02*
X15537500Y-11196000D01*
X15537500Y-11283000D02*
X15577500Y-11323000D01*
X15577500Y-11283000D02*
X15537500Y-11323000D01*
X15537500Y-11410000D02*
X15577500Y-11450000D01*
X15577500Y-11410000D02*
X15537500Y-11450000D01*
X15537500Y-11537000D02*
X15577500Y-11577000D01*
X15577500Y-11537000D02*
X15537500Y-11577000D01*
X15537500Y-11664000D02*
X15577500Y-11704000D01*
X15577500Y-11664000D02*
X15537500Y-11704000D01*
X15601000Y-9886000D02*
X15641000Y-9926000D01*
X15641000Y-9886000D02*
X15601000Y-9926000D01*
X15601000Y-10013000D02*
X15641000Y-10053000D01*
X15641000Y-10013000D02*
X15601000Y-10053000D01*
X15601000Y-10140000D02*
X15641000Y-10180000D01*
X15641000Y-10140000D02*
X15601000Y-10180000D01*
X15601000Y-10267000D02*
X15641000Y-10307000D01*
X15641000Y-10267000D02*
X15601000Y-10307000D01*
X15601000Y-10394000D02*
X15641000Y-10434000D01*
X15641000Y-10394000D02*
X15601000Y-10434000D01*
X15664500Y-10775000D02*
X15704500Y-10815000D01*
X15704500Y-10775000D02*
X15664500Y-10815000D01*
X15664500Y-10902000D02*
X15704500Y-10942000D01*
X15704500Y-10902000D02*
X15664500Y-10942000D01*
X15664500Y-11029000D02*
X15704500Y-11069000D01*
X15704500Y-11029000D02*
X15664500Y-11069000D01*
X15664500Y-11156000D02*
X15704500Y-11196000D01*
X15704500Y-11156000D02*
X15664500Y-11196000D01*
X15664500Y-11283000D02*
X15704500Y-11323000D01*
X15704500Y-11283000D02*
X15664500Y-11323000D01*
X15664500Y-11410000D02*
X15704500Y-11450000D01*
X15704500Y-11410000D02*
X15664500Y-11450000D01*
X15664500Y-11537000D02*
X15704500Y-11577000D01*
X15704500Y-11537000D02*
X15664500Y-11577000D01*
X15664500Y-11664000D02*
X15704500Y-11704000D01*
X15704500Y-11664000D02*
X15664500Y-11704000D01*
X15728000Y-9886000D02*
X15768000Y-9926000D01*
X15768000Y-9886000D02*
X15728000Y-9926000D01*
X15728000Y-10013000D02*
X15768000Y-10053000D01*
X15768000Y-10013000D02*
X15728000Y-10053000D01*
X15728000Y-10140000D02*
X15768000Y-10180000D01*
X15768000Y-10140000D02*
X15728000Y-10180000D01*
X15728000Y-10267000D02*
X15768000Y-10307000D01*
X15768000Y-10267000D02*
X15728000Y-10307000D01*
X15728000Y-10394000D02*
X15768000Y-10434000D01*
X15768000Y-10394000D02*
X15728000Y-10434000D01*
X15791500Y-11029000D02*
X15831500Y-11069000D01*
X15831500Y-11029000D02*
X15791500Y-11069000D01*
X15791500Y-11156000D02*
X15831500Y-11196000D01*
X15831500Y-11156000D02*
X15791500Y-11196000D01*
X15791500Y-11283000D02*
X15831500Y-11323000D01*
X15831500Y-11283000D02*
X15791500Y-11323000D01*
X15791500Y-11410000D02*
X15831500Y-11450000D01*
X15831500Y-11410000D02*
X15791500Y-11450000D01*
X15791500Y-11537000D02*
X15831500Y-11577000D01*
X15831500Y-11537000D02*
X15791500Y-11577000D01*
X15791500Y-11664000D02*
X15831500Y-11704000D01*
X15831500Y-11664000D02*
X15791500Y-11704000D01*
X15855000Y-9886000D02*
X15895000Y-9926000D01*
X15895000Y-9886000D02*
X15855000Y-9926000D01*
X15855000Y-10013000D02*
X15895000Y-10053000D01*
X15895000Y-10013000D02*
X15855000Y-10053000D01*
X15855000Y-10140000D02*
X15895000Y-10180000D01*
X15895000Y-10140000D02*
X15855000Y-10180000D01*
X15855000Y-10267000D02*
X15895000Y-10307000D01*
X15895000Y-10267000D02*
X15855000Y-10307000D01*
X15855000Y-10394000D02*
X15895000Y-10434000D01*
X15895000Y-10394000D02*
X15855000Y-10434000D01*
X15982000Y-9886000D02*
X16022000Y-9926000D01*
X16022000Y-9886000D02*
X15982000Y-9926000D01*
X15982000Y-10013000D02*
X16022000Y-10053000D01*
X16022000Y-10013000D02*
X15982000Y-10053000D01*
X15982000Y-10140000D02*
X16022000Y-10180000D01*
X16022000Y-10140000D02*
X15982000Y-10180000D01*
X15982000Y-10267000D02*
X16022000Y-10307000D01*
X16022000Y-10267000D02*
X15982000Y-10307000D01*
X15982000Y-10394000D02*
X16022000Y-10434000D01*
X16022000Y-10394000D02*
X15982000Y-10434000D01*
X16109000Y-9886000D02*
X16149000Y-9926000D01*
X16149000Y-9886000D02*
X16109000Y-9926000D01*
X16109000Y-10013000D02*
X16149000Y-10053000D01*
X16149000Y-10013000D02*
X16109000Y-10053000D01*
X16109000Y-10140000D02*
X16149000Y-10180000D01*
X16149000Y-10140000D02*
X16109000Y-10180000D01*
X16109000Y-10267000D02*
X16149000Y-10307000D01*
X16149000Y-10267000D02*
X16109000Y-10307000D01*
X16109000Y-10394000D02*
X16149000Y-10434000D01*
X16149000Y-10394000D02*
X16109000Y-10434000D01*
X16109000Y-10775000D02*
X16149000Y-10815000D01*
X16149000Y-10775000D02*
X16109000Y-10815000D01*
X16109000Y-10902000D02*
X16149000Y-10942000D01*
X16149000Y-10902000D02*
X16109000Y-10942000D01*
X16109000Y-11029000D02*
X16149000Y-11069000D01*
X16149000Y-11029000D02*
X16109000Y-11069000D01*
X16109000Y-11143300D02*
X16149000Y-11183300D01*
X16149000Y-11143300D02*
X16109000Y-11183300D01*
X16109000Y-11270300D02*
X16149000Y-11310300D01*
X16149000Y-11270300D02*
X16109000Y-11310300D01*
X16109000Y-11397300D02*
X16149000Y-11437300D01*
X16149000Y-11397300D02*
X16109000Y-11437300D01*
X16109000Y-11524300D02*
X16149000Y-11564300D01*
X16149000Y-11524300D02*
X16109000Y-11564300D01*
X16109000Y-11651300D02*
X16149000Y-11691300D01*
X16149000Y-11651300D02*
X16109000Y-11691300D01*
X16236000Y-9886000D02*
X16276000Y-9926000D01*
X16276000Y-9886000D02*
X16236000Y-9926000D01*
X16236000Y-10013000D02*
X16276000Y-10053000D01*
X16276000Y-10013000D02*
X16236000Y-10053000D01*
X16236000Y-10140000D02*
X16276000Y-10180000D01*
X16276000Y-10140000D02*
X16236000Y-10180000D01*
X16236000Y-10267000D02*
X16276000Y-10307000D01*
X16276000Y-10267000D02*
X16236000Y-10307000D01*
X16236000Y-10394000D02*
X16276000Y-10434000D01*
X16276000Y-10394000D02*
X16236000Y-10434000D01*
X16236000Y-10775000D02*
X16276000Y-10815000D01*
X16276000Y-10775000D02*
X16236000Y-10815000D01*
X16236000Y-10902000D02*
X16276000Y-10942000D01*
X16276000Y-10902000D02*
X16236000Y-10942000D01*
X16236000Y-11029000D02*
X16276000Y-11069000D01*
X16276000Y-11029000D02*
X16236000Y-11069000D01*
X16236000Y-11143300D02*
X16276000Y-11183300D01*
X16276000Y-11143300D02*
X16236000Y-11183300D01*
X16236000Y-11270300D02*
X16276000Y-11310300D01*
X16276000Y-11270300D02*
X16236000Y-11310300D01*
X16236000Y-11397300D02*
X16276000Y-11437300D01*
X16276000Y-11397300D02*
X16236000Y-11437300D01*
X16236000Y-11524300D02*
X16276000Y-11564300D01*
X16276000Y-11524300D02*
X16236000Y-11564300D01*
X16236000Y-11651300D02*
X16276000Y-11691300D01*
X16276000Y-11651300D02*
X16236000Y-11691300D01*
X16363000Y-9886000D02*
X16403000Y-9926000D01*
X16403000Y-9886000D02*
X16363000Y-9926000D01*
X16363000Y-10013000D02*
X16403000Y-10053000D01*
X16403000Y-10013000D02*
X16363000Y-10053000D01*
X16363000Y-10140000D02*
X16403000Y-10180000D01*
X16403000Y-10140000D02*
X16363000Y-10180000D01*
X16363000Y-10267000D02*
X16403000Y-10307000D01*
X16403000Y-10267000D02*
X16363000Y-10307000D01*
X16363000Y-10394000D02*
X16403000Y-10434000D01*
X16403000Y-10394000D02*
X16363000Y-10434000D01*
X16363000Y-11029000D02*
X16403000Y-11069000D01*
X16403000Y-11029000D02*
X16363000Y-11069000D01*
X16363000Y-11143300D02*
X16403000Y-11183300D01*
X16403000Y-11143300D02*
X16363000Y-11183300D01*
X16363000Y-11270300D02*
X16403000Y-11310300D01*
X16403000Y-11270300D02*
X16363000Y-11310300D01*
X16363000Y-11397300D02*
X16403000Y-11437300D01*
X16403000Y-11397300D02*
X16363000Y-11437300D01*
X16363000Y-11524300D02*
X16403000Y-11564300D01*
X16403000Y-11524300D02*
X16363000Y-11564300D01*
X16363000Y-11651300D02*
X16403000Y-11691300D01*
X16403000Y-11651300D02*
X16363000Y-11691300D01*
X16490000Y-10013000D02*
X16530000Y-10053000D01*
X16530000Y-10013000D02*
X16490000Y-10053000D01*
X16490000Y-10140000D02*
X16530000Y-10180000D01*
X16530000Y-10140000D02*
X16490000Y-10180000D01*
X16490000Y-10267000D02*
X16530000Y-10307000D01*
X16530000Y-10267000D02*
X16490000Y-10307000D01*
X16490000Y-10394000D02*
X16530000Y-10434000D01*
X16530000Y-10394000D02*
X16490000Y-10434000D01*
X16490000Y-10902000D02*
X16530000Y-10942000D01*
X16530000Y-10902000D02*
X16490000Y-10942000D01*
X16490000Y-11029000D02*
X16530000Y-11069000D01*
X16530000Y-11029000D02*
X16490000Y-11069000D01*
X16490000Y-11143300D02*
X16530000Y-11183300D01*
X16530000Y-11143300D02*
X16490000Y-11183300D01*
X16490000Y-11270300D02*
X16530000Y-11310300D01*
X16530000Y-11270300D02*
X16490000Y-11310300D01*
X16490000Y-11397300D02*
X16530000Y-11437300D01*
X16530000Y-11397300D02*
X16490000Y-11437300D01*
X16490000Y-11524300D02*
X16530000Y-11564300D01*
X16530000Y-11524300D02*
X16490000Y-11564300D01*
X16490000Y-11651300D02*
X16530000Y-11691300D01*
X16530000Y-11651300D02*
X16490000Y-11691300D01*
X16934500Y-9721100D02*
X16974500Y-9761100D01*
X16974500Y-9721100D02*
X16934500Y-9761100D01*
X18014000Y-8870000D02*
X18054000Y-8910000D01*
X18054000Y-8870000D02*
X18014000Y-8910000D01*
X18014000Y-8997000D02*
X18054000Y-9037000D01*
X18054000Y-8997000D02*
X18014000Y-9037000D01*
X18014000Y-9124000D02*
X18054000Y-9164000D01*
X18054000Y-9124000D02*
X18014000Y-9164000D01*
X18014000Y-9251000D02*
X18054000Y-9291000D01*
X18054000Y-9251000D02*
X18014000Y-9291000D01*
X18014000Y-9378000D02*
X18054000Y-9418000D01*
X18054000Y-9378000D02*
X18014000Y-9418000D01*
X18014000Y-9505000D02*
X18054000Y-9545000D01*
X18054000Y-9505000D02*
X18014000Y-9545000D01*
X18014000Y-11410000D02*
X18054000Y-11450000D01*
X18054000Y-11410000D02*
X18014000Y-11450000D01*
X18014000Y-11537000D02*
X18054000Y-11577000D01*
X18054000Y-11537000D02*
X18014000Y-11577000D01*
X18014000Y-11664000D02*
X18054000Y-11704000D01*
X18054000Y-11664000D02*
X18014000Y-11704000D01*
X18014000Y-11791000D02*
X18054000Y-11831000D01*
X18054000Y-11791000D02*
X18014000Y-11831000D01*
X18014000Y-11918000D02*
X18054000Y-11958000D01*
X18054000Y-11918000D02*
X18014000Y-11958000D01*
X18014000Y-12045000D02*
X18054000Y-12085000D01*
X18054000Y-12045000D02*
X18014000Y-12085000D01*
X18141000Y-8870000D02*
X18181000Y-8910000D01*
X18181000Y-8870000D02*
X18141000Y-8910000D01*
X18141000Y-8997000D02*
X18181000Y-9037000D01*
X18181000Y-8997000D02*
X18141000Y-9037000D01*
X18141000Y-9124000D02*
X18181000Y-9164000D01*
X18181000Y-9124000D02*
X18141000Y-9164000D01*
X18141000Y-9251000D02*
X18181000Y-9291000D01*
X18181000Y-9251000D02*
X18141000Y-9291000D01*
X18141000Y-9378000D02*
X18181000Y-9418000D01*
X18181000Y-9378000D02*
X18141000Y-9418000D01*
X18141000Y-9505000D02*
X18181000Y-9545000D01*
X18181000Y-9505000D02*
X18141000Y-9545000D01*
X18141000Y-11410000D02*
X18181000Y-11450000D01*
X18181000Y-11410000D02*
X18141000Y-11450000D01*
X18141000Y-11537000D02*
X18181000Y-11577000D01*
X18181000Y-11537000D02*
X18141000Y-11577000D01*
X18141000Y-11664000D02*
X18181000Y-11704000D01*
X18181000Y-11664000D02*
X18141000Y-11704000D01*
X18141000Y-11791000D02*
X18181000Y-11831000D01*
X18181000Y-11791000D02*
X18141000Y-11831000D01*
X18141000Y-11918000D02*
X18181000Y-11958000D01*
X18181000Y-11918000D02*
X18141000Y-11958000D01*
X18141000Y-12045000D02*
X18181000Y-12085000D01*
X18181000Y-12045000D02*
X18141000Y-12085000D01*
X18268000Y-8870000D02*
X18308000Y-8910000D01*
X18308000Y-8870000D02*
X18268000Y-8910000D01*
X18268000Y-8997000D02*
X18308000Y-9037000D01*
X18308000Y-8997000D02*
X18268000Y-9037000D01*
X18268000Y-9124000D02*
X18308000Y-9164000D01*
X18308000Y-9124000D02*
X18268000Y-9164000D01*
X18268000Y-9251000D02*
X18308000Y-9291000D01*
X18308000Y-9251000D02*
X18268000Y-9291000D01*
X18268000Y-9378000D02*
X18308000Y-9418000D01*
X18308000Y-9378000D02*
X18268000Y-9418000D01*
X18268000Y-9505000D02*
X18308000Y-9545000D01*
X18308000Y-9505000D02*
X18268000Y-9545000D01*
X18268000Y-11410000D02*
X18308000Y-11450000D01*
X18308000Y-11410000D02*
X18268000Y-11450000D01*
X18268000Y-11537000D02*
X18308000Y-11577000D01*
X18308000Y-11537000D02*
X18268000Y-11577000D01*
X18268000Y-11664000D02*
X18308000Y-11704000D01*
X18308000Y-11664000D02*
X18268000Y-11704000D01*
X18268000Y-11791000D02*
X18308000Y-11831000D01*
X18308000Y-11791000D02*
X18268000Y-11831000D01*
X18268000Y-11918000D02*
X18308000Y-11958000D01*
X18308000Y-11918000D02*
X18268000Y-11958000D01*
X18268000Y-12045000D02*
X18308000Y-12085000D01*
X18308000Y-12045000D02*
X18268000Y-12085000D01*
X18395000Y-8870000D02*
X18435000Y-8910000D01*
X18435000Y-8870000D02*
X18395000Y-8910000D01*
X18395000Y-8997000D02*
X18435000Y-9037000D01*
X18435000Y-8997000D02*
X18395000Y-9037000D01*
X18395000Y-9124000D02*
X18435000Y-9164000D01*
X18435000Y-9124000D02*
X18395000Y-9164000D01*
X18395000Y-9251000D02*
X18435000Y-9291000D01*
X18435000Y-9251000D02*
X18395000Y-9291000D01*
X18395000Y-9378000D02*
X18435000Y-9418000D01*
X18435000Y-9378000D02*
X18395000Y-9418000D01*
X18395000Y-9505000D02*
X18435000Y-9545000D01*
X18435000Y-9505000D02*
X18395000Y-9545000D01*
X18395000Y-11410000D02*
X18435000Y-11450000D01*
X18435000Y-11410000D02*
X18395000Y-11450000D01*
X18395000Y-11537000D02*
X18435000Y-11577000D01*
X18435000Y-11537000D02*
X18395000Y-11577000D01*
X18395000Y-11664000D02*
X18435000Y-11704000D01*
X18435000Y-11664000D02*
X18395000Y-11704000D01*
X18395000Y-11791000D02*
X18435000Y-11831000D01*
X18435000Y-11791000D02*
X18395000Y-11831000D01*
X18395000Y-11918000D02*
X18435000Y-11958000D01*
X18435000Y-11918000D02*
X18395000Y-11958000D01*
X18395000Y-12045000D02*
X18435000Y-12085000D01*
X18435000Y-12045000D02*
X18395000Y-12085000D01*
X18522000Y-8870000D02*
X18562000Y-8910000D01*
X18562000Y-8870000D02*
X18522000Y-8910000D01*
X18522000Y-8997000D02*
X18562000Y-9037000D01*
X18562000Y-8997000D02*
X18522000Y-9037000D01*
X18522000Y-9124000D02*
X18562000Y-9164000D01*
X18562000Y-9124000D02*
X18522000Y-9164000D01*
X18522000Y-9251000D02*
X18562000Y-9291000D01*
X18562000Y-9251000D02*
X18522000Y-9291000D01*
X18522000Y-9378000D02*
X18562000Y-9418000D01*
X18562000Y-9378000D02*
X18522000Y-9418000D01*
X18522000Y-9505000D02*
X18562000Y-9545000D01*
X18562000Y-9505000D02*
X18522000Y-9545000D01*
X18522000Y-11410000D02*
X18562000Y-11450000D01*
X18562000Y-11410000D02*
X18522000Y-11450000D01*
X18522000Y-11537000D02*
X18562000Y-11577000D01*
X18562000Y-11537000D02*
X18522000Y-11577000D01*
X18522000Y-11664000D02*
X18562000Y-11704000D01*
X18562000Y-11664000D02*
X18522000Y-11704000D01*
X18522000Y-11791000D02*
X18562000Y-11831000D01*
X18562000Y-11791000D02*
X18522000Y-11831000D01*
X18522000Y-11918000D02*
X18562000Y-11958000D01*
X18562000Y-11918000D02*
X18522000Y-11958000D01*
X18522000Y-12045000D02*
X18562000Y-12085000D01*
X18562000Y-12045000D02*
X18522000Y-12085000D01*
X18649000Y-8870000D02*
X18689000Y-8910000D01*
X18689000Y-8870000D02*
X18649000Y-8910000D01*
X18649000Y-8997000D02*
X18689000Y-9037000D01*
X18689000Y-8997000D02*
X18649000Y-9037000D01*
X18649000Y-9124000D02*
X18689000Y-9164000D01*
X18689000Y-9124000D02*
X18649000Y-9164000D01*
X18649000Y-9251000D02*
X18689000Y-9291000D01*
X18689000Y-9251000D02*
X18649000Y-9291000D01*
X18649000Y-9378000D02*
X18689000Y-9418000D01*
X18689000Y-9378000D02*
X18649000Y-9418000D01*
X18649000Y-9505000D02*
X18689000Y-9545000D01*
X18689000Y-9505000D02*
X18649000Y-9545000D01*
X18649000Y-11410000D02*
X18689000Y-11450000D01*
X18689000Y-11410000D02*
X18649000Y-11450000D01*
X18649000Y-11537000D02*
X18689000Y-11577000D01*
X18689000Y-11537000D02*
X18649000Y-11577000D01*
X18649000Y-11664000D02*
X18689000Y-11704000D01*
X18689000Y-11664000D02*
X18649000Y-11704000D01*
X18649000Y-11791000D02*
X18689000Y-11831000D01*
X18689000Y-11791000D02*
X18649000Y-11831000D01*
X18649000Y-11918000D02*
X18689000Y-11958000D01*
X18689000Y-11918000D02*
X18649000Y-11958000D01*
X18649000Y-12045000D02*
X18689000Y-12085000D01*
X18689000Y-12045000D02*
X18649000Y-12085000D01*
X18776000Y-8870000D02*
X18816000Y-8910000D01*
X18816000Y-8870000D02*
X18776000Y-8910000D01*
X18776000Y-8997000D02*
X18816000Y-9037000D01*
X18816000Y-8997000D02*
X18776000Y-9037000D01*
X18776000Y-9124000D02*
X18816000Y-9164000D01*
X18816000Y-9124000D02*
X18776000Y-9164000D01*
X18776000Y-9251000D02*
X18816000Y-9291000D01*
X18816000Y-9251000D02*
X18776000Y-9291000D01*
X18776000Y-9378000D02*
X18816000Y-9418000D01*
X18816000Y-9378000D02*
X18776000Y-9418000D01*
X18776000Y-9505000D02*
X18816000Y-9545000D01*
X18816000Y-9505000D02*
X18776000Y-9545000D01*
X18776000Y-11410000D02*
X18816000Y-11450000D01*
X18816000Y-11410000D02*
X18776000Y-11450000D01*
X18776000Y-11537000D02*
X18816000Y-11577000D01*
X18816000Y-11537000D02*
X18776000Y-11577000D01*
X18776000Y-11664000D02*
X18816000Y-11704000D01*
X18816000Y-11664000D02*
X18776000Y-11704000D01*
X18776000Y-11791000D02*
X18816000Y-11831000D01*
X18816000Y-11791000D02*
X18776000Y-11831000D01*
X18776000Y-11918000D02*
X18816000Y-11958000D01*
X18816000Y-11918000D02*
X18776000Y-11958000D01*
X18776000Y-12045000D02*
X18816000Y-12085000D01*
X18816000Y-12045000D02*
X18776000Y-12085000D01*
X18903000Y-8870000D02*
X18943000Y-8910000D01*
X18943000Y-8870000D02*
X18903000Y-8910000D01*
X18903000Y-8997000D02*
X18943000Y-9037000D01*
X18943000Y-8997000D02*
X18903000Y-9037000D01*
X18903000Y-9124000D02*
X18943000Y-9164000D01*
X18943000Y-9124000D02*
X18903000Y-9164000D01*
X18903000Y-9251000D02*
X18943000Y-9291000D01*
X18943000Y-9251000D02*
X18903000Y-9291000D01*
X18903000Y-9378000D02*
X18943000Y-9418000D01*
X18943000Y-9378000D02*
X18903000Y-9418000D01*
X18903000Y-9505000D02*
X18943000Y-9545000D01*
X18943000Y-9505000D02*
X18903000Y-9545000D01*
X18903000Y-11410000D02*
X18943000Y-11450000D01*
X18943000Y-11410000D02*
X18903000Y-11450000D01*
X18903000Y-11537000D02*
X18943000Y-11577000D01*
X18943000Y-11537000D02*
X18903000Y-11577000D01*
X18903000Y-11664000D02*
X18943000Y-11704000D01*
X18943000Y-11664000D02*
X18903000Y-11704000D01*
X18903000Y-11791000D02*
X18943000Y-11831000D01*
X18943000Y-11791000D02*
X18903000Y-11831000D01*
X18903000Y-11918000D02*
X18943000Y-11958000D01*
X18943000Y-11918000D02*
X18903000Y-11958000D01*
X18903000Y-12045000D02*
X18943000Y-12085000D01*
X18943000Y-12045000D02*
X18903000Y-12085000D01*
X19030000Y-8870000D02*
X19070000Y-8910000D01*
X19070000Y-8870000D02*
X19030000Y-8910000D01*
X19030000Y-8997000D02*
X19070000Y-9037000D01*
X19070000Y-8997000D02*
X19030000Y-9037000D01*
X19030000Y-9124000D02*
X19070000Y-9164000D01*
X19070000Y-9124000D02*
X19030000Y-9164000D01*
X19030000Y-9251000D02*
X19070000Y-9291000D01*
X19070000Y-9251000D02*
X19030000Y-9291000D01*
X19030000Y-9378000D02*
X19070000Y-9418000D01*
X19070000Y-9378000D02*
X19030000Y-9418000D01*
X19030000Y-9505000D02*
X19070000Y-9545000D01*
X19070000Y-9505000D02*
X19030000Y-9545000D01*
X19030000Y-11410000D02*
X19070000Y-11450000D01*
X19070000Y-11410000D02*
X19030000Y-11450000D01*
X19030000Y-11537000D02*
X19070000Y-11577000D01*
X19070000Y-11537000D02*
X19030000Y-11577000D01*
X19030000Y-11664000D02*
X19070000Y-11704000D01*
X19070000Y-11664000D02*
X19030000Y-11704000D01*
X19030000Y-11791000D02*
X19070000Y-11831000D01*
X19070000Y-11791000D02*
X19030000Y-11831000D01*
X19030000Y-11918000D02*
X19070000Y-11958000D01*
X19070000Y-11918000D02*
X19030000Y-11958000D01*
X19030000Y-12045000D02*
X19070000Y-12085000D01*
X19070000Y-12045000D02*
X19030000Y-12085000D01*
X19157000Y-8870000D02*
X19197000Y-8910000D01*
X19197000Y-8870000D02*
X19157000Y-8910000D01*
X19157000Y-8997000D02*
X19197000Y-9037000D01*
X19197000Y-8997000D02*
X19157000Y-9037000D01*
X19157000Y-9124000D02*
X19197000Y-9164000D01*
X19197000Y-9124000D02*
X19157000Y-9164000D01*
X19157000Y-9251000D02*
X19197000Y-9291000D01*
X19197000Y-9251000D02*
X19157000Y-9291000D01*
X19157000Y-9378000D02*
X19197000Y-9418000D01*
X19197000Y-9378000D02*
X19157000Y-9418000D01*
X19157000Y-9505000D02*
X19197000Y-9545000D01*
X19197000Y-9505000D02*
X19157000Y-9545000D01*
X19157000Y-11410000D02*
X19197000Y-11450000D01*
X19197000Y-11410000D02*
X19157000Y-11450000D01*
X19157000Y-11537000D02*
X19197000Y-11577000D01*
X19197000Y-11537000D02*
X19157000Y-11577000D01*
X19157000Y-11664000D02*
X19197000Y-11704000D01*
X19197000Y-11664000D02*
X19157000Y-11704000D01*
X19157000Y-11791000D02*
X19197000Y-11831000D01*
X19197000Y-11791000D02*
X19157000Y-11831000D01*
X19157000Y-11918000D02*
X19197000Y-11958000D01*
X19197000Y-11918000D02*
X19157000Y-11958000D01*
X19157000Y-12045000D02*
X19197000Y-12085000D01*
X19197000Y-12045000D02*
X19157000Y-12085000D01*
D13*
X11956000Y-9802500D02*
G75*
G03*
X11956000Y-9802500I-30000J0D01*
G01*
D11*
X11871000Y-9832500D02*
X11981000Y-9832500D01*
X11981000Y-9832500D02*
G75*
G03*
X11981000Y-9772500I0J30000D01*
G01*
X11981000Y-9772500D02*
X11871000Y-9772500D01*
X11871000Y-9772500D02*
G75*
G03*
X11871000Y-9832500I0J-30000D01*
G01*
D13*
X11956000Y-11152500D02*
G75*
G03*
X11956000Y-11152500I-30000J0D01*
G01*
D11*
X11871000Y-11182500D02*
X11981000Y-11182500D01*
X11981000Y-11182500D02*
G75*
G03*
X11981000Y-11122500I0J30000D01*
G01*
X11981000Y-11122500D02*
X11871000Y-11122500D01*
X11871000Y-11122500D02*
G75*
G03*
X11871000Y-11182500I0J-30000D01*
G01*
D13*
X18383800Y-9802500D02*
G75*
G03*
X18383800Y-9802500I-30000J0D01*
G01*
D11*
X18408800Y-9772500D02*
X18298800Y-9772500D01*
X18298800Y-9772500D02*
G75*
G03*
X18298800Y-9832500I0J-30000D01*
G01*
X18298800Y-9832500D02*
X18408800Y-9832500D01*
X18408800Y-9832500D02*
G75*
G03*
X18408800Y-9772500I0J30000D01*
G01*
D13*
X18383800Y-11152500D02*
G75*
G03*
X18383800Y-11152500I-30000J0D01*
G01*
D11*
X18408800Y-11122500D02*
X18298800Y-11122500D01*
X18298800Y-11122500D02*
G75*
G03*
X18298800Y-11182500I0J-30000D01*
G01*
X18298800Y-11182500D02*
X18408800Y-11182500D01*
X18408800Y-11182500D02*
G75*
G03*
X18408800Y-11122500I0J30000D01*
G01*
D14*
X13474700Y-11544900D02*
X13474700Y-11619900D01*
X13437200Y-11582400D02*
X13512200Y-11582400D01*
X13674700Y-11544900D02*
X13674700Y-11619900D01*
X13637200Y-11582400D02*
X13712200Y-11582400D01*
X16751300Y-11544900D02*
X16751300Y-11619900D01*
X16713800Y-11582400D02*
X16788800Y-11582400D01*
X16951300Y-11544900D02*
X16951300Y-11619900D01*
X16913800Y-11582400D02*
X16988800Y-11582400D01*
D15*
X12621460Y-10212960D02*
X12621460Y-10022040D01*
X12430540Y-10022040D01*
X12430540Y-10212960D01*
X12621460Y-10212960D01*
X12621460Y-10932960D02*
X12621460Y-10742040D01*
X12430540Y-10742040D01*
X12430540Y-10932960D01*
X12621460Y-10932960D01*
X17849260Y-10212960D02*
X17849260Y-10022040D01*
X17658340Y-10022040D01*
X17658340Y-10212960D01*
X17849260Y-10212960D01*
X17849260Y-10932960D02*
X17849260Y-10742040D01*
X17658340Y-10742040D01*
X17658340Y-10932960D01*
X17849260Y-10932960D01*
D11*
X11037619Y-12573024D02*
X11037619Y-12373024D01*
X11037619Y-12373024D02*
X11085238Y-12373024D01*
X11085238Y-12373024D02*
X11113810Y-12382548D01*
X11113810Y-12382548D02*
X11132857Y-12401595D01*
X11132857Y-12401595D02*
X11142381Y-12420643D01*
X11142381Y-12420643D02*
X11151905Y-12458738D01*
X11151905Y-12458738D02*
X11151905Y-12487309D01*
X11151905Y-12487309D02*
X11142381Y-12525405D01*
X11142381Y-12525405D02*
X11132857Y-12544452D01*
X11132857Y-12544452D02*
X11113810Y-12563500D01*
X11113810Y-12563500D02*
X11085238Y-12573024D01*
X11085238Y-12573024D02*
X11037619Y-12573024D01*
X11237619Y-12573024D02*
X11237619Y-12439690D01*
X11237619Y-12477786D02*
X11247143Y-12458738D01*
X11247143Y-12458738D02*
X11256667Y-12449214D01*
X11256667Y-12449214D02*
X11275714Y-12439690D01*
X11275714Y-12439690D02*
X11294762Y-12439690D01*
X11361428Y-12573024D02*
X11361428Y-12439690D01*
X11361428Y-12373024D02*
X11351905Y-12382548D01*
X11351905Y-12382548D02*
X11361428Y-12392071D01*
X11361428Y-12392071D02*
X11370952Y-12382548D01*
X11370952Y-12382548D02*
X11361428Y-12373024D01*
X11361428Y-12373024D02*
X11361428Y-12392071D01*
X11485238Y-12573024D02*
X11466190Y-12563500D01*
X11466190Y-12563500D02*
X11456667Y-12544452D01*
X11456667Y-12544452D02*
X11456667Y-12373024D01*
X11590000Y-12573024D02*
X11570952Y-12563500D01*
X11570952Y-12563500D02*
X11561428Y-12544452D01*
X11561428Y-12544452D02*
X11561428Y-12373024D01*
X11818571Y-12573024D02*
X11818571Y-12373024D01*
X11818571Y-12373024D02*
X11885238Y-12515881D01*
X11885238Y-12515881D02*
X11951905Y-12373024D01*
X11951905Y-12373024D02*
X11951905Y-12573024D01*
X12132857Y-12573024D02*
X12132857Y-12468262D01*
X12132857Y-12468262D02*
X12123333Y-12449214D01*
X12123333Y-12449214D02*
X12104286Y-12439690D01*
X12104286Y-12439690D02*
X12066190Y-12439690D01*
X12066190Y-12439690D02*
X12047143Y-12449214D01*
X12132857Y-12563500D02*
X12113809Y-12573024D01*
X12113809Y-12573024D02*
X12066190Y-12573024D01*
X12066190Y-12573024D02*
X12047143Y-12563500D01*
X12047143Y-12563500D02*
X12037619Y-12544452D01*
X12037619Y-12544452D02*
X12037619Y-12525405D01*
X12037619Y-12525405D02*
X12047143Y-12506357D01*
X12047143Y-12506357D02*
X12066190Y-12496833D01*
X12066190Y-12496833D02*
X12113809Y-12496833D01*
X12113809Y-12496833D02*
X12132857Y-12487309D01*
X12228095Y-12439690D02*
X12228095Y-12639690D01*
X12228095Y-12449214D02*
X12247143Y-12439690D01*
X12247143Y-12439690D02*
X12285238Y-12439690D01*
X12285238Y-12439690D02*
X12304286Y-12449214D01*
X12304286Y-12449214D02*
X12313809Y-12458738D01*
X12313809Y-12458738D02*
X12323333Y-12477786D01*
X12323333Y-12477786D02*
X12323333Y-12534928D01*
X12323333Y-12534928D02*
X12313809Y-12553976D01*
X12313809Y-12553976D02*
X12304286Y-12563500D01*
X12304286Y-12563500D02*
X12285238Y-12573024D01*
X12285238Y-12573024D02*
X12247143Y-12573024D01*
X12247143Y-12573024D02*
X12228095Y-12563500D01*
X12409048Y-12553976D02*
X12418571Y-12563500D01*
X12418571Y-12563500D02*
X12409048Y-12573024D01*
X12409048Y-12573024D02*
X12399524Y-12563500D01*
X12399524Y-12563500D02*
X12409048Y-12553976D01*
X12409048Y-12553976D02*
X12409048Y-12573024D01*
X12409048Y-12449214D02*
X12418571Y-12458738D01*
X12418571Y-12458738D02*
X12409048Y-12468262D01*
X12409048Y-12468262D02*
X12399524Y-12458738D01*
X12399524Y-12458738D02*
X12409048Y-12449214D01*
X12409048Y-12449214D02*
X12409048Y-12468262D01*
D12*
X10750000Y-12880500D02*
X10790000Y-12920500D01*
X10790000Y-12880500D02*
X10750000Y-12920500D01*
D11*
X11075714Y-12793024D02*
X11094762Y-12793024D01*
X11094762Y-12793024D02*
X11113810Y-12802548D01*
X11113810Y-12802548D02*
X11123333Y-12812071D01*
X11123333Y-12812071D02*
X11132857Y-12831119D01*
X11132857Y-12831119D02*
X11142381Y-12869214D01*
X11142381Y-12869214D02*
X11142381Y-12916833D01*
X11142381Y-12916833D02*
X11132857Y-12954928D01*
X11132857Y-12954928D02*
X11123333Y-12973976D01*
X11123333Y-12973976D02*
X11113810Y-12983500D01*
X11113810Y-12983500D02*
X11094762Y-12993024D01*
X11094762Y-12993024D02*
X11075714Y-12993024D01*
X11075714Y-12993024D02*
X11056667Y-12983500D01*
X11056667Y-12983500D02*
X11047143Y-12973976D01*
X11047143Y-12973976D02*
X11037619Y-12954928D01*
X11037619Y-12954928D02*
X11028095Y-12916833D01*
X11028095Y-12916833D02*
X11028095Y-12869214D01*
X11028095Y-12869214D02*
X11037619Y-12831119D01*
X11037619Y-12831119D02*
X11047143Y-12812071D01*
X11047143Y-12812071D02*
X11056667Y-12802548D01*
X11056667Y-12802548D02*
X11075714Y-12793024D01*
X11228095Y-12973976D02*
X11237619Y-12983500D01*
X11237619Y-12983500D02*
X11228095Y-12993024D01*
X11228095Y-12993024D02*
X11218571Y-12983500D01*
X11218571Y-12983500D02*
X11228095Y-12973976D01*
X11228095Y-12973976D02*
X11228095Y-12993024D01*
X11409048Y-12859690D02*
X11409048Y-12993024D01*
X11361428Y-12783500D02*
X11313809Y-12926357D01*
X11313809Y-12926357D02*
X11437619Y-12926357D01*
X11551905Y-12793024D02*
X11570952Y-12793024D01*
X11570952Y-12793024D02*
X11590000Y-12802548D01*
X11590000Y-12802548D02*
X11599524Y-12812071D01*
X11599524Y-12812071D02*
X11609048Y-12831119D01*
X11609048Y-12831119D02*
X11618571Y-12869214D01*
X11618571Y-12869214D02*
X11618571Y-12916833D01*
X11618571Y-12916833D02*
X11609048Y-12954928D01*
X11609048Y-12954928D02*
X11599524Y-12973976D01*
X11599524Y-12973976D02*
X11590000Y-12983500D01*
X11590000Y-12983500D02*
X11570952Y-12993024D01*
X11570952Y-12993024D02*
X11551905Y-12993024D01*
X11551905Y-12993024D02*
X11532857Y-12983500D01*
X11532857Y-12983500D02*
X11523333Y-12973976D01*
X11523333Y-12973976D02*
X11513809Y-12954928D01*
X11513809Y-12954928D02*
X11504286Y-12916833D01*
X11504286Y-12916833D02*
X11504286Y-12869214D01*
X11504286Y-12869214D02*
X11513809Y-12831119D01*
X11513809Y-12831119D02*
X11523333Y-12812071D01*
X11523333Y-12812071D02*
X11532857Y-12802548D01*
X11532857Y-12802548D02*
X11551905Y-12793024D01*
X11742381Y-12793024D02*
X11761429Y-12793024D01*
X11761429Y-12793024D02*
X11780476Y-12802548D01*
X11780476Y-12802548D02*
X11790000Y-12812071D01*
X11790000Y-12812071D02*
X11799524Y-12831119D01*
X11799524Y-12831119D02*
X11809048Y-12869214D01*
X11809048Y-12869214D02*
X11809048Y-12916833D01*
X11809048Y-12916833D02*
X11799524Y-12954928D01*
X11799524Y-12954928D02*
X11790000Y-12973976D01*
X11790000Y-12973976D02*
X11780476Y-12983500D01*
X11780476Y-12983500D02*
X11761429Y-12993024D01*
X11761429Y-12993024D02*
X11742381Y-12993024D01*
X11742381Y-12993024D02*
X11723333Y-12983500D01*
X11723333Y-12983500D02*
X11713809Y-12973976D01*
X11713809Y-12973976D02*
X11704286Y-12954928D01*
X11704286Y-12954928D02*
X11694762Y-12916833D01*
X11694762Y-12916833D02*
X11694762Y-12869214D01*
X11694762Y-12869214D02*
X11704286Y-12831119D01*
X11704286Y-12831119D02*
X11713809Y-12812071D01*
X11713809Y-12812071D02*
X11723333Y-12802548D01*
X11723333Y-12802548D02*
X11742381Y-12793024D01*
X11894762Y-12993024D02*
X11894762Y-12859690D01*
X11894762Y-12878738D02*
X11904286Y-12869214D01*
X11904286Y-12869214D02*
X11923333Y-12859690D01*
X11923333Y-12859690D02*
X11951905Y-12859690D01*
X11951905Y-12859690D02*
X11970952Y-12869214D01*
X11970952Y-12869214D02*
X11980476Y-12888262D01*
X11980476Y-12888262D02*
X11980476Y-12993024D01*
X11980476Y-12888262D02*
X11990000Y-12869214D01*
X11990000Y-12869214D02*
X12009048Y-12859690D01*
X12009048Y-12859690D02*
X12037619Y-12859690D01*
X12037619Y-12859690D02*
X12056667Y-12869214D01*
X12056667Y-12869214D02*
X12066190Y-12888262D01*
X12066190Y-12888262D02*
X12066190Y-12993024D01*
X12161429Y-12993024D02*
X12161429Y-12859690D01*
X12161429Y-12878738D02*
X12170952Y-12869214D01*
X12170952Y-12869214D02*
X12190000Y-12859690D01*
X12190000Y-12859690D02*
X12218571Y-12859690D01*
X12218571Y-12859690D02*
X12237619Y-12869214D01*
X12237619Y-12869214D02*
X12247143Y-12888262D01*
X12247143Y-12888262D02*
X12247143Y-12993024D01*
X12247143Y-12888262D02*
X12256667Y-12869214D01*
X12256667Y-12869214D02*
X12275714Y-12859690D01*
X12275714Y-12859690D02*
X12304286Y-12859690D01*
X12304286Y-12859690D02*
X12323333Y-12869214D01*
X12323333Y-12869214D02*
X12332857Y-12888262D01*
X12332857Y-12888262D02*
X12332857Y-12993024D01*
X12723333Y-12783500D02*
X12551905Y-13040643D01*
X12980476Y-12793024D02*
X12999524Y-12793024D01*
X12999524Y-12793024D02*
X13018572Y-12802548D01*
X13018572Y-12802548D02*
X13028095Y-12812071D01*
X13028095Y-12812071D02*
X13037619Y-12831119D01*
X13037619Y-12831119D02*
X13047143Y-12869214D01*
X13047143Y-12869214D02*
X13047143Y-12916833D01*
X13047143Y-12916833D02*
X13037619Y-12954928D01*
X13037619Y-12954928D02*
X13028095Y-12973976D01*
X13028095Y-12973976D02*
X13018572Y-12983500D01*
X13018572Y-12983500D02*
X12999524Y-12993024D01*
X12999524Y-12993024D02*
X12980476Y-12993024D01*
X12980476Y-12993024D02*
X12961429Y-12983500D01*
X12961429Y-12983500D02*
X12951905Y-12973976D01*
X12951905Y-12973976D02*
X12942381Y-12954928D01*
X12942381Y-12954928D02*
X12932857Y-12916833D01*
X12932857Y-12916833D02*
X12932857Y-12869214D01*
X12932857Y-12869214D02*
X12942381Y-12831119D01*
X12942381Y-12831119D02*
X12951905Y-12812071D01*
X12951905Y-12812071D02*
X12961429Y-12802548D01*
X12961429Y-12802548D02*
X12980476Y-12793024D01*
X13132857Y-12973976D02*
X13142381Y-12983500D01*
X13142381Y-12983500D02*
X13132857Y-12993024D01*
X13132857Y-12993024D02*
X13123333Y-12983500D01*
X13123333Y-12983500D02*
X13132857Y-12973976D01*
X13132857Y-12973976D02*
X13132857Y-12993024D01*
X13266191Y-12793024D02*
X13285238Y-12793024D01*
X13285238Y-12793024D02*
X13304286Y-12802548D01*
X13304286Y-12802548D02*
X13313810Y-12812071D01*
X13313810Y-12812071D02*
X13323333Y-12831119D01*
X13323333Y-12831119D02*
X13332857Y-12869214D01*
X13332857Y-12869214D02*
X13332857Y-12916833D01*
X13332857Y-12916833D02*
X13323333Y-12954928D01*
X13323333Y-12954928D02*
X13313810Y-12973976D01*
X13313810Y-12973976D02*
X13304286Y-12983500D01*
X13304286Y-12983500D02*
X13285238Y-12993024D01*
X13285238Y-12993024D02*
X13266191Y-12993024D01*
X13266191Y-12993024D02*
X13247143Y-12983500D01*
X13247143Y-12983500D02*
X13237619Y-12973976D01*
X13237619Y-12973976D02*
X13228095Y-12954928D01*
X13228095Y-12954928D02*
X13218572Y-12916833D01*
X13218572Y-12916833D02*
X13218572Y-12869214D01*
X13218572Y-12869214D02*
X13228095Y-12831119D01*
X13228095Y-12831119D02*
X13237619Y-12812071D01*
X13237619Y-12812071D02*
X13247143Y-12802548D01*
X13247143Y-12802548D02*
X13266191Y-12793024D01*
X13523333Y-12993024D02*
X13409048Y-12993024D01*
X13466191Y-12993024D02*
X13466191Y-12793024D01*
X13466191Y-12793024D02*
X13447143Y-12821595D01*
X13447143Y-12821595D02*
X13428095Y-12840643D01*
X13428095Y-12840643D02*
X13409048Y-12850167D01*
X13704286Y-12793024D02*
X13609048Y-12793024D01*
X13609048Y-12793024D02*
X13599524Y-12888262D01*
X13599524Y-12888262D02*
X13609048Y-12878738D01*
X13609048Y-12878738D02*
X13628095Y-12869214D01*
X13628095Y-12869214D02*
X13675714Y-12869214D01*
X13675714Y-12869214D02*
X13694762Y-12878738D01*
X13694762Y-12878738D02*
X13704286Y-12888262D01*
X13704286Y-12888262D02*
X13713810Y-12907309D01*
X13713810Y-12907309D02*
X13713810Y-12954928D01*
X13713810Y-12954928D02*
X13704286Y-12973976D01*
X13704286Y-12973976D02*
X13694762Y-12983500D01*
X13694762Y-12983500D02*
X13675714Y-12993024D01*
X13675714Y-12993024D02*
X13628095Y-12993024D01*
X13628095Y-12993024D02*
X13609048Y-12983500D01*
X13609048Y-12983500D02*
X13599524Y-12973976D01*
X13780476Y-12793024D02*
X13913810Y-12793024D01*
X13913810Y-12793024D02*
X13828095Y-12993024D01*
X13980476Y-12793024D02*
X13980476Y-12831119D01*
X14056667Y-12793024D02*
X14056667Y-12831119D01*
X14351905Y-13069214D02*
X14342381Y-13059690D01*
X14342381Y-13059690D02*
X14323334Y-13031119D01*
X14323334Y-13031119D02*
X14313810Y-13012071D01*
X14313810Y-13012071D02*
X14304286Y-12983500D01*
X14304286Y-12983500D02*
X14294762Y-12935881D01*
X14294762Y-12935881D02*
X14294762Y-12897786D01*
X14294762Y-12897786D02*
X14304286Y-12850167D01*
X14304286Y-12850167D02*
X14313810Y-12821595D01*
X14313810Y-12821595D02*
X14323334Y-12802548D01*
X14323334Y-12802548D02*
X14342381Y-12773976D01*
X14342381Y-12773976D02*
X14351905Y-12764452D01*
X14513810Y-12859690D02*
X14513810Y-12993024D01*
X14466191Y-12783500D02*
X14418572Y-12926357D01*
X14418572Y-12926357D02*
X14542381Y-12926357D01*
X14599524Y-12793024D02*
X14723334Y-12793024D01*
X14723334Y-12793024D02*
X14656667Y-12869214D01*
X14656667Y-12869214D02*
X14685238Y-12869214D01*
X14685238Y-12869214D02*
X14704286Y-12878738D01*
X14704286Y-12878738D02*
X14713810Y-12888262D01*
X14713810Y-12888262D02*
X14723334Y-12907309D01*
X14723334Y-12907309D02*
X14723334Y-12954928D01*
X14723334Y-12954928D02*
X14713810Y-12973976D01*
X14713810Y-12973976D02*
X14704286Y-12983500D01*
X14704286Y-12983500D02*
X14685238Y-12993024D01*
X14685238Y-12993024D02*
X14628095Y-12993024D01*
X14628095Y-12993024D02*
X14609048Y-12983500D01*
X14609048Y-12983500D02*
X14599524Y-12973976D01*
X14790000Y-12793024D02*
X14923334Y-12793024D01*
X14923334Y-12793024D02*
X14837619Y-12993024D01*
X15151905Y-12993024D02*
X15151905Y-12793024D01*
X15237619Y-12993024D02*
X15237619Y-12888262D01*
X15237619Y-12888262D02*
X15228096Y-12869214D01*
X15228096Y-12869214D02*
X15209048Y-12859690D01*
X15209048Y-12859690D02*
X15180476Y-12859690D01*
X15180476Y-12859690D02*
X15161429Y-12869214D01*
X15161429Y-12869214D02*
X15151905Y-12878738D01*
X15361429Y-12993024D02*
X15342381Y-12983500D01*
X15342381Y-12983500D02*
X15332857Y-12973976D01*
X15332857Y-12973976D02*
X15323334Y-12954928D01*
X15323334Y-12954928D02*
X15323334Y-12897786D01*
X15323334Y-12897786D02*
X15332857Y-12878738D01*
X15332857Y-12878738D02*
X15342381Y-12869214D01*
X15342381Y-12869214D02*
X15361429Y-12859690D01*
X15361429Y-12859690D02*
X15390000Y-12859690D01*
X15390000Y-12859690D02*
X15409048Y-12869214D01*
X15409048Y-12869214D02*
X15418572Y-12878738D01*
X15418572Y-12878738D02*
X15428096Y-12897786D01*
X15428096Y-12897786D02*
X15428096Y-12954928D01*
X15428096Y-12954928D02*
X15418572Y-12973976D01*
X15418572Y-12973976D02*
X15409048Y-12983500D01*
X15409048Y-12983500D02*
X15390000Y-12993024D01*
X15390000Y-12993024D02*
X15361429Y-12993024D01*
X15542381Y-12993024D02*
X15523334Y-12983500D01*
X15523334Y-12983500D02*
X15513810Y-12964452D01*
X15513810Y-12964452D02*
X15513810Y-12793024D01*
X15694762Y-12983500D02*
X15675715Y-12993024D01*
X15675715Y-12993024D02*
X15637619Y-12993024D01*
X15637619Y-12993024D02*
X15618572Y-12983500D01*
X15618572Y-12983500D02*
X15609048Y-12964452D01*
X15609048Y-12964452D02*
X15609048Y-12888262D01*
X15609048Y-12888262D02*
X15618572Y-12869214D01*
X15618572Y-12869214D02*
X15637619Y-12859690D01*
X15637619Y-12859690D02*
X15675715Y-12859690D01*
X15675715Y-12859690D02*
X15694762Y-12869214D01*
X15694762Y-12869214D02*
X15704286Y-12888262D01*
X15704286Y-12888262D02*
X15704286Y-12907309D01*
X15704286Y-12907309D02*
X15609048Y-12926357D01*
X15780477Y-12983500D02*
X15799524Y-12993024D01*
X15799524Y-12993024D02*
X15837619Y-12993024D01*
X15837619Y-12993024D02*
X15856667Y-12983500D01*
X15856667Y-12983500D02*
X15866191Y-12964452D01*
X15866191Y-12964452D02*
X15866191Y-12954928D01*
X15866191Y-12954928D02*
X15856667Y-12935881D01*
X15856667Y-12935881D02*
X15837619Y-12926357D01*
X15837619Y-12926357D02*
X15809048Y-12926357D01*
X15809048Y-12926357D02*
X15790000Y-12916833D01*
X15790000Y-12916833D02*
X15780477Y-12897786D01*
X15780477Y-12897786D02*
X15780477Y-12888262D01*
X15780477Y-12888262D02*
X15790000Y-12869214D01*
X15790000Y-12869214D02*
X15809048Y-12859690D01*
X15809048Y-12859690D02*
X15837619Y-12859690D01*
X15837619Y-12859690D02*
X15856667Y-12869214D01*
X15932858Y-13069214D02*
X15942381Y-13059690D01*
X15942381Y-13059690D02*
X15961429Y-13031119D01*
X15961429Y-13031119D02*
X15970953Y-13012071D01*
X15970953Y-13012071D02*
X15980477Y-12983500D01*
X15980477Y-12983500D02*
X15990000Y-12935881D01*
X15990000Y-12935881D02*
X15990000Y-12897786D01*
X15990000Y-12897786D02*
X15980477Y-12850167D01*
X15980477Y-12850167D02*
X15970953Y-12821595D01*
X15970953Y-12821595D02*
X15961429Y-12802548D01*
X15961429Y-12802548D02*
X15942381Y-12773976D01*
X15942381Y-12773976D02*
X15932858Y-12764452D01*
D13*
X10790000Y-13164500D02*
G75*
G03*
X10790000Y-13164500I-30000J0D01*
G01*
D11*
X11075714Y-13057024D02*
X11094762Y-13057024D01*
X11094762Y-13057024D02*
X11113810Y-13066548D01*
X11113810Y-13066548D02*
X11123333Y-13076071D01*
X11123333Y-13076071D02*
X11132857Y-13095119D01*
X11132857Y-13095119D02*
X11142381Y-13133214D01*
X11142381Y-13133214D02*
X11142381Y-13180833D01*
X11142381Y-13180833D02*
X11132857Y-13218928D01*
X11132857Y-13218928D02*
X11123333Y-13237976D01*
X11123333Y-13237976D02*
X11113810Y-13247500D01*
X11113810Y-13247500D02*
X11094762Y-13257024D01*
X11094762Y-13257024D02*
X11075714Y-13257024D01*
X11075714Y-13257024D02*
X11056667Y-13247500D01*
X11056667Y-13247500D02*
X11047143Y-13237976D01*
X11047143Y-13237976D02*
X11037619Y-13218928D01*
X11037619Y-13218928D02*
X11028095Y-13180833D01*
X11028095Y-13180833D02*
X11028095Y-13133214D01*
X11028095Y-13133214D02*
X11037619Y-13095119D01*
X11037619Y-13095119D02*
X11047143Y-13076071D01*
X11047143Y-13076071D02*
X11056667Y-13066548D01*
X11056667Y-13066548D02*
X11075714Y-13057024D01*
X11228095Y-13237976D02*
X11237619Y-13247500D01*
X11237619Y-13247500D02*
X11228095Y-13257024D01*
X11228095Y-13257024D02*
X11218571Y-13247500D01*
X11218571Y-13247500D02*
X11228095Y-13237976D01*
X11228095Y-13237976D02*
X11228095Y-13257024D01*
X11409048Y-13057024D02*
X11370952Y-13057024D01*
X11370952Y-13057024D02*
X11351905Y-13066548D01*
X11351905Y-13066548D02*
X11342381Y-13076071D01*
X11342381Y-13076071D02*
X11323333Y-13104643D01*
X11323333Y-13104643D02*
X11313809Y-13142738D01*
X11313809Y-13142738D02*
X11313809Y-13218928D01*
X11313809Y-13218928D02*
X11323333Y-13237976D01*
X11323333Y-13237976D02*
X11332857Y-13247500D01*
X11332857Y-13247500D02*
X11351905Y-13257024D01*
X11351905Y-13257024D02*
X11390000Y-13257024D01*
X11390000Y-13257024D02*
X11409048Y-13247500D01*
X11409048Y-13247500D02*
X11418571Y-13237976D01*
X11418571Y-13237976D02*
X11428095Y-13218928D01*
X11428095Y-13218928D02*
X11428095Y-13171309D01*
X11428095Y-13171309D02*
X11418571Y-13152262D01*
X11418571Y-13152262D02*
X11409048Y-13142738D01*
X11409048Y-13142738D02*
X11390000Y-13133214D01*
X11390000Y-13133214D02*
X11351905Y-13133214D01*
X11351905Y-13133214D02*
X11332857Y-13142738D01*
X11332857Y-13142738D02*
X11323333Y-13152262D01*
X11323333Y-13152262D02*
X11313809Y-13171309D01*
X11551905Y-13057024D02*
X11570952Y-13057024D01*
X11570952Y-13057024D02*
X11590000Y-13066548D01*
X11590000Y-13066548D02*
X11599524Y-13076071D01*
X11599524Y-13076071D02*
X11609048Y-13095119D01*
X11609048Y-13095119D02*
X11618571Y-13133214D01*
X11618571Y-13133214D02*
X11618571Y-13180833D01*
X11618571Y-13180833D02*
X11609048Y-13218928D01*
X11609048Y-13218928D02*
X11599524Y-13237976D01*
X11599524Y-13237976D02*
X11590000Y-13247500D01*
X11590000Y-13247500D02*
X11570952Y-13257024D01*
X11570952Y-13257024D02*
X11551905Y-13257024D01*
X11551905Y-13257024D02*
X11532857Y-13247500D01*
X11532857Y-13247500D02*
X11523333Y-13237976D01*
X11523333Y-13237976D02*
X11513809Y-13218928D01*
X11513809Y-13218928D02*
X11504286Y-13180833D01*
X11504286Y-13180833D02*
X11504286Y-13133214D01*
X11504286Y-13133214D02*
X11513809Y-13095119D01*
X11513809Y-13095119D02*
X11523333Y-13076071D01*
X11523333Y-13076071D02*
X11532857Y-13066548D01*
X11532857Y-13066548D02*
X11551905Y-13057024D01*
X11742381Y-13057024D02*
X11761429Y-13057024D01*
X11761429Y-13057024D02*
X11780476Y-13066548D01*
X11780476Y-13066548D02*
X11790000Y-13076071D01*
X11790000Y-13076071D02*
X11799524Y-13095119D01*
X11799524Y-13095119D02*
X11809048Y-13133214D01*
X11809048Y-13133214D02*
X11809048Y-13180833D01*
X11809048Y-13180833D02*
X11799524Y-13218928D01*
X11799524Y-13218928D02*
X11790000Y-13237976D01*
X11790000Y-13237976D02*
X11780476Y-13247500D01*
X11780476Y-13247500D02*
X11761429Y-13257024D01*
X11761429Y-13257024D02*
X11742381Y-13257024D01*
X11742381Y-13257024D02*
X11723333Y-13247500D01*
X11723333Y-13247500D02*
X11713809Y-13237976D01*
X11713809Y-13237976D02*
X11704286Y-13218928D01*
X11704286Y-13218928D02*
X11694762Y-13180833D01*
X11694762Y-13180833D02*
X11694762Y-13133214D01*
X11694762Y-13133214D02*
X11704286Y-13095119D01*
X11704286Y-13095119D02*
X11713809Y-13076071D01*
X11713809Y-13076071D02*
X11723333Y-13066548D01*
X11723333Y-13066548D02*
X11742381Y-13057024D01*
X11894762Y-13257024D02*
X11894762Y-13123690D01*
X11894762Y-13142738D02*
X11904286Y-13133214D01*
X11904286Y-13133214D02*
X11923333Y-13123690D01*
X11923333Y-13123690D02*
X11951905Y-13123690D01*
X11951905Y-13123690D02*
X11970952Y-13133214D01*
X11970952Y-13133214D02*
X11980476Y-13152262D01*
X11980476Y-13152262D02*
X11980476Y-13257024D01*
X11980476Y-13152262D02*
X11990000Y-13133214D01*
X11990000Y-13133214D02*
X12009048Y-13123690D01*
X12009048Y-13123690D02*
X12037619Y-13123690D01*
X12037619Y-13123690D02*
X12056667Y-13133214D01*
X12056667Y-13133214D02*
X12066190Y-13152262D01*
X12066190Y-13152262D02*
X12066190Y-13257024D01*
X12161429Y-13257024D02*
X12161429Y-13123690D01*
X12161429Y-13142738D02*
X12170952Y-13133214D01*
X12170952Y-13133214D02*
X12190000Y-13123690D01*
X12190000Y-13123690D02*
X12218571Y-13123690D01*
X12218571Y-13123690D02*
X12237619Y-13133214D01*
X12237619Y-13133214D02*
X12247143Y-13152262D01*
X12247143Y-13152262D02*
X12247143Y-13257024D01*
X12247143Y-13152262D02*
X12256667Y-13133214D01*
X12256667Y-13133214D02*
X12275714Y-13123690D01*
X12275714Y-13123690D02*
X12304286Y-13123690D01*
X12304286Y-13123690D02*
X12323333Y-13133214D01*
X12323333Y-13133214D02*
X12332857Y-13152262D01*
X12332857Y-13152262D02*
X12332857Y-13257024D01*
X12723333Y-13047500D02*
X12551905Y-13304643D01*
X12980476Y-13057024D02*
X12999524Y-13057024D01*
X12999524Y-13057024D02*
X13018572Y-13066548D01*
X13018572Y-13066548D02*
X13028095Y-13076071D01*
X13028095Y-13076071D02*
X13037619Y-13095119D01*
X13037619Y-13095119D02*
X13047143Y-13133214D01*
X13047143Y-13133214D02*
X13047143Y-13180833D01*
X13047143Y-13180833D02*
X13037619Y-13218928D01*
X13037619Y-13218928D02*
X13028095Y-13237976D01*
X13028095Y-13237976D02*
X13018572Y-13247500D01*
X13018572Y-13247500D02*
X12999524Y-13257024D01*
X12999524Y-13257024D02*
X12980476Y-13257024D01*
X12980476Y-13257024D02*
X12961429Y-13247500D01*
X12961429Y-13247500D02*
X12951905Y-13237976D01*
X12951905Y-13237976D02*
X12942381Y-13218928D01*
X12942381Y-13218928D02*
X12932857Y-13180833D01*
X12932857Y-13180833D02*
X12932857Y-13133214D01*
X12932857Y-13133214D02*
X12942381Y-13095119D01*
X12942381Y-13095119D02*
X12951905Y-13076071D01*
X12951905Y-13076071D02*
X12961429Y-13066548D01*
X12961429Y-13066548D02*
X12980476Y-13057024D01*
X13132857Y-13237976D02*
X13142381Y-13247500D01*
X13142381Y-13247500D02*
X13132857Y-13257024D01*
X13132857Y-13257024D02*
X13123333Y-13247500D01*
X13123333Y-13247500D02*
X13132857Y-13237976D01*
X13132857Y-13237976D02*
X13132857Y-13257024D01*
X13266191Y-13057024D02*
X13285238Y-13057024D01*
X13285238Y-13057024D02*
X13304286Y-13066548D01*
X13304286Y-13066548D02*
X13313810Y-13076071D01*
X13313810Y-13076071D02*
X13323333Y-13095119D01*
X13323333Y-13095119D02*
X13332857Y-13133214D01*
X13332857Y-13133214D02*
X13332857Y-13180833D01*
X13332857Y-13180833D02*
X13323333Y-13218928D01*
X13323333Y-13218928D02*
X13313810Y-13237976D01*
X13313810Y-13237976D02*
X13304286Y-13247500D01*
X13304286Y-13247500D02*
X13285238Y-13257024D01*
X13285238Y-13257024D02*
X13266191Y-13257024D01*
X13266191Y-13257024D02*
X13247143Y-13247500D01*
X13247143Y-13247500D02*
X13237619Y-13237976D01*
X13237619Y-13237976D02*
X13228095Y-13218928D01*
X13228095Y-13218928D02*
X13218572Y-13180833D01*
X13218572Y-13180833D02*
X13218572Y-13133214D01*
X13218572Y-13133214D02*
X13228095Y-13095119D01*
X13228095Y-13095119D02*
X13237619Y-13076071D01*
X13237619Y-13076071D02*
X13247143Y-13066548D01*
X13247143Y-13066548D02*
X13266191Y-13057024D01*
X13409048Y-13076071D02*
X13418572Y-13066548D01*
X13418572Y-13066548D02*
X13437619Y-13057024D01*
X13437619Y-13057024D02*
X13485238Y-13057024D01*
X13485238Y-13057024D02*
X13504286Y-13066548D01*
X13504286Y-13066548D02*
X13513810Y-13076071D01*
X13513810Y-13076071D02*
X13523333Y-13095119D01*
X13523333Y-13095119D02*
X13523333Y-13114167D01*
X13523333Y-13114167D02*
X13513810Y-13142738D01*
X13513810Y-13142738D02*
X13399524Y-13257024D01*
X13399524Y-13257024D02*
X13523333Y-13257024D01*
X13590000Y-13057024D02*
X13713810Y-13057024D01*
X13713810Y-13057024D02*
X13647143Y-13133214D01*
X13647143Y-13133214D02*
X13675714Y-13133214D01*
X13675714Y-13133214D02*
X13694762Y-13142738D01*
X13694762Y-13142738D02*
X13704286Y-13152262D01*
X13704286Y-13152262D02*
X13713810Y-13171309D01*
X13713810Y-13171309D02*
X13713810Y-13218928D01*
X13713810Y-13218928D02*
X13704286Y-13237976D01*
X13704286Y-13237976D02*
X13694762Y-13247500D01*
X13694762Y-13247500D02*
X13675714Y-13257024D01*
X13675714Y-13257024D02*
X13618572Y-13257024D01*
X13618572Y-13257024D02*
X13599524Y-13247500D01*
X13599524Y-13247500D02*
X13590000Y-13237976D01*
X13885238Y-13057024D02*
X13847143Y-13057024D01*
X13847143Y-13057024D02*
X13828095Y-13066548D01*
X13828095Y-13066548D02*
X13818572Y-13076071D01*
X13818572Y-13076071D02*
X13799524Y-13104643D01*
X13799524Y-13104643D02*
X13790000Y-13142738D01*
X13790000Y-13142738D02*
X13790000Y-13218928D01*
X13790000Y-13218928D02*
X13799524Y-13237976D01*
X13799524Y-13237976D02*
X13809048Y-13247500D01*
X13809048Y-13247500D02*
X13828095Y-13257024D01*
X13828095Y-13257024D02*
X13866191Y-13257024D01*
X13866191Y-13257024D02*
X13885238Y-13247500D01*
X13885238Y-13247500D02*
X13894762Y-13237976D01*
X13894762Y-13237976D02*
X13904286Y-13218928D01*
X13904286Y-13218928D02*
X13904286Y-13171309D01*
X13904286Y-13171309D02*
X13894762Y-13152262D01*
X13894762Y-13152262D02*
X13885238Y-13142738D01*
X13885238Y-13142738D02*
X13866191Y-13133214D01*
X13866191Y-13133214D02*
X13828095Y-13133214D01*
X13828095Y-13133214D02*
X13809048Y-13142738D01*
X13809048Y-13142738D02*
X13799524Y-13152262D01*
X13799524Y-13152262D02*
X13790000Y-13171309D01*
X13980476Y-13057024D02*
X13980476Y-13095119D01*
X14056667Y-13057024D02*
X14056667Y-13095119D01*
X14351905Y-13333214D02*
X14342381Y-13323690D01*
X14342381Y-13323690D02*
X14323334Y-13295119D01*
X14323334Y-13295119D02*
X14313810Y-13276071D01*
X14313810Y-13276071D02*
X14304286Y-13247500D01*
X14304286Y-13247500D02*
X14294762Y-13199881D01*
X14294762Y-13199881D02*
X14294762Y-13161786D01*
X14294762Y-13161786D02*
X14304286Y-13114167D01*
X14304286Y-13114167D02*
X14313810Y-13085595D01*
X14313810Y-13085595D02*
X14323334Y-13066548D01*
X14323334Y-13066548D02*
X14342381Y-13037976D01*
X14342381Y-13037976D02*
X14351905Y-13028452D01*
X14466191Y-13057024D02*
X14485238Y-13057024D01*
X14485238Y-13057024D02*
X14504286Y-13066548D01*
X14504286Y-13066548D02*
X14513810Y-13076071D01*
X14513810Y-13076071D02*
X14523334Y-13095119D01*
X14523334Y-13095119D02*
X14532857Y-13133214D01*
X14532857Y-13133214D02*
X14532857Y-13180833D01*
X14532857Y-13180833D02*
X14523334Y-13218928D01*
X14523334Y-13218928D02*
X14513810Y-13237976D01*
X14513810Y-13237976D02*
X14504286Y-13247500D01*
X14504286Y-13247500D02*
X14485238Y-13257024D01*
X14485238Y-13257024D02*
X14466191Y-13257024D01*
X14466191Y-13257024D02*
X14447143Y-13247500D01*
X14447143Y-13247500D02*
X14437619Y-13237976D01*
X14437619Y-13237976D02*
X14428095Y-13218928D01*
X14428095Y-13218928D02*
X14418572Y-13180833D01*
X14418572Y-13180833D02*
X14418572Y-13133214D01*
X14418572Y-13133214D02*
X14428095Y-13095119D01*
X14428095Y-13095119D02*
X14437619Y-13076071D01*
X14437619Y-13076071D02*
X14447143Y-13066548D01*
X14447143Y-13066548D02*
X14466191Y-13057024D01*
X14770953Y-13257024D02*
X14770953Y-13057024D01*
X14856667Y-13257024D02*
X14856667Y-13152262D01*
X14856667Y-13152262D02*
X14847143Y-13133214D01*
X14847143Y-13133214D02*
X14828096Y-13123690D01*
X14828096Y-13123690D02*
X14799524Y-13123690D01*
X14799524Y-13123690D02*
X14780476Y-13133214D01*
X14780476Y-13133214D02*
X14770953Y-13142738D01*
X14980476Y-13257024D02*
X14961429Y-13247500D01*
X14961429Y-13247500D02*
X14951905Y-13237976D01*
X14951905Y-13237976D02*
X14942381Y-13218928D01*
X14942381Y-13218928D02*
X14942381Y-13161786D01*
X14942381Y-13161786D02*
X14951905Y-13142738D01*
X14951905Y-13142738D02*
X14961429Y-13133214D01*
X14961429Y-13133214D02*
X14980476Y-13123690D01*
X14980476Y-13123690D02*
X15009048Y-13123690D01*
X15009048Y-13123690D02*
X15028096Y-13133214D01*
X15028096Y-13133214D02*
X15037619Y-13142738D01*
X15037619Y-13142738D02*
X15047143Y-13161786D01*
X15047143Y-13161786D02*
X15047143Y-13218928D01*
X15047143Y-13218928D02*
X15037619Y-13237976D01*
X15037619Y-13237976D02*
X15028096Y-13247500D01*
X15028096Y-13247500D02*
X15009048Y-13257024D01*
X15009048Y-13257024D02*
X14980476Y-13257024D01*
X15161429Y-13257024D02*
X15142381Y-13247500D01*
X15142381Y-13247500D02*
X15132857Y-13228452D01*
X15132857Y-13228452D02*
X15132857Y-13057024D01*
X15313810Y-13247500D02*
X15294762Y-13257024D01*
X15294762Y-13257024D02*
X15256667Y-13257024D01*
X15256667Y-13257024D02*
X15237619Y-13247500D01*
X15237619Y-13247500D02*
X15228096Y-13228452D01*
X15228096Y-13228452D02*
X15228096Y-13152262D01*
X15228096Y-13152262D02*
X15237619Y-13133214D01*
X15237619Y-13133214D02*
X15256667Y-13123690D01*
X15256667Y-13123690D02*
X15294762Y-13123690D01*
X15294762Y-13123690D02*
X15313810Y-13133214D01*
X15313810Y-13133214D02*
X15323334Y-13152262D01*
X15323334Y-13152262D02*
X15323334Y-13171309D01*
X15323334Y-13171309D02*
X15228096Y-13190357D01*
X15399524Y-13247500D02*
X15418572Y-13257024D01*
X15418572Y-13257024D02*
X15456667Y-13257024D01*
X15456667Y-13257024D02*
X15475715Y-13247500D01*
X15475715Y-13247500D02*
X15485238Y-13228452D01*
X15485238Y-13228452D02*
X15485238Y-13218928D01*
X15485238Y-13218928D02*
X15475715Y-13199881D01*
X15475715Y-13199881D02*
X15456667Y-13190357D01*
X15456667Y-13190357D02*
X15428096Y-13190357D01*
X15428096Y-13190357D02*
X15409048Y-13180833D01*
X15409048Y-13180833D02*
X15399524Y-13161786D01*
X15399524Y-13161786D02*
X15399524Y-13152262D01*
X15399524Y-13152262D02*
X15409048Y-13133214D01*
X15409048Y-13133214D02*
X15428096Y-13123690D01*
X15428096Y-13123690D02*
X15456667Y-13123690D01*
X15456667Y-13123690D02*
X15475715Y-13133214D01*
X15723334Y-13180833D02*
X15875715Y-13180833D01*
X15799524Y-13257024D02*
X15799524Y-13104643D01*
X16209048Y-13123690D02*
X16209048Y-13257024D01*
X16161429Y-13047500D02*
X16113810Y-13190357D01*
X16113810Y-13190357D02*
X16237619Y-13190357D01*
X16456667Y-13247500D02*
X16475715Y-13257024D01*
X16475715Y-13257024D02*
X16513810Y-13257024D01*
X16513810Y-13257024D02*
X16532858Y-13247500D01*
X16532858Y-13247500D02*
X16542381Y-13228452D01*
X16542381Y-13228452D02*
X16542381Y-13218928D01*
X16542381Y-13218928D02*
X16532858Y-13199881D01*
X16532858Y-13199881D02*
X16513810Y-13190357D01*
X16513810Y-13190357D02*
X16485239Y-13190357D01*
X16485239Y-13190357D02*
X16466191Y-13180833D01*
X16466191Y-13180833D02*
X16456667Y-13161786D01*
X16456667Y-13161786D02*
X16456667Y-13152262D01*
X16456667Y-13152262D02*
X16466191Y-13133214D01*
X16466191Y-13133214D02*
X16485239Y-13123690D01*
X16485239Y-13123690D02*
X16513810Y-13123690D01*
X16513810Y-13123690D02*
X16532858Y-13133214D01*
X16656667Y-13257024D02*
X16637620Y-13247500D01*
X16637620Y-13247500D02*
X16628096Y-13228452D01*
X16628096Y-13228452D02*
X16628096Y-13057024D01*
X16761429Y-13257024D02*
X16742381Y-13247500D01*
X16742381Y-13247500D02*
X16732858Y-13237976D01*
X16732858Y-13237976D02*
X16723334Y-13218928D01*
X16723334Y-13218928D02*
X16723334Y-13161786D01*
X16723334Y-13161786D02*
X16732858Y-13142738D01*
X16732858Y-13142738D02*
X16742381Y-13133214D01*
X16742381Y-13133214D02*
X16761429Y-13123690D01*
X16761429Y-13123690D02*
X16790001Y-13123690D01*
X16790001Y-13123690D02*
X16809048Y-13133214D01*
X16809048Y-13133214D02*
X16818572Y-13142738D01*
X16818572Y-13142738D02*
X16828096Y-13161786D01*
X16828096Y-13161786D02*
X16828096Y-13218928D01*
X16828096Y-13218928D02*
X16818572Y-13237976D01*
X16818572Y-13237976D02*
X16809048Y-13247500D01*
X16809048Y-13247500D02*
X16790001Y-13257024D01*
X16790001Y-13257024D02*
X16761429Y-13257024D01*
X16885239Y-13123690D02*
X16961429Y-13123690D01*
X16913810Y-13057024D02*
X16913810Y-13228452D01*
X16913810Y-13228452D02*
X16923334Y-13247500D01*
X16923334Y-13247500D02*
X16942382Y-13257024D01*
X16942382Y-13257024D02*
X16961429Y-13257024D01*
X17018572Y-13247500D02*
X17037620Y-13257024D01*
X17037620Y-13257024D02*
X17075715Y-13257024D01*
X17075715Y-13257024D02*
X17094763Y-13247500D01*
X17094763Y-13247500D02*
X17104286Y-13228452D01*
X17104286Y-13228452D02*
X17104286Y-13218928D01*
X17104286Y-13218928D02*
X17094763Y-13199881D01*
X17094763Y-13199881D02*
X17075715Y-13190357D01*
X17075715Y-13190357D02*
X17047143Y-13190357D01*
X17047143Y-13190357D02*
X17028096Y-13180833D01*
X17028096Y-13180833D02*
X17018572Y-13161786D01*
X17018572Y-13161786D02*
X17018572Y-13152262D01*
X17018572Y-13152262D02*
X17028096Y-13133214D01*
X17028096Y-13133214D02*
X17047143Y-13123690D01*
X17047143Y-13123690D02*
X17075715Y-13123690D01*
X17075715Y-13123690D02*
X17094763Y-13133214D01*
X17170953Y-13333214D02*
X17180477Y-13323690D01*
X17180477Y-13323690D02*
X17199524Y-13295119D01*
X17199524Y-13295119D02*
X17209048Y-13276071D01*
X17209048Y-13276071D02*
X17218572Y-13247500D01*
X17218572Y-13247500D02*
X17228096Y-13199881D01*
X17228096Y-13199881D02*
X17228096Y-13161786D01*
X17228096Y-13161786D02*
X17218572Y-13114167D01*
X17218572Y-13114167D02*
X17209048Y-13085595D01*
X17209048Y-13085595D02*
X17199524Y-13066548D01*
X17199524Y-13066548D02*
X17180477Y-13037976D01*
X17180477Y-13037976D02*
X17170953Y-13028452D01*
D14*
X10752500Y-13391000D02*
X10752500Y-13466000D01*
X10715000Y-13428500D02*
X10790000Y-13428500D01*
D11*
X11075714Y-13321024D02*
X11094762Y-13321024D01*
X11094762Y-13321024D02*
X11113810Y-13330548D01*
X11113810Y-13330548D02*
X11123333Y-13340071D01*
X11123333Y-13340071D02*
X11132857Y-13359119D01*
X11132857Y-13359119D02*
X11142381Y-13397214D01*
X11142381Y-13397214D02*
X11142381Y-13444833D01*
X11142381Y-13444833D02*
X11132857Y-13482928D01*
X11132857Y-13482928D02*
X11123333Y-13501976D01*
X11123333Y-13501976D02*
X11113810Y-13511500D01*
X11113810Y-13511500D02*
X11094762Y-13521024D01*
X11094762Y-13521024D02*
X11075714Y-13521024D01*
X11075714Y-13521024D02*
X11056667Y-13511500D01*
X11056667Y-13511500D02*
X11047143Y-13501976D01*
X11047143Y-13501976D02*
X11037619Y-13482928D01*
X11037619Y-13482928D02*
X11028095Y-13444833D01*
X11028095Y-13444833D02*
X11028095Y-13397214D01*
X11028095Y-13397214D02*
X11037619Y-13359119D01*
X11037619Y-13359119D02*
X11047143Y-13340071D01*
X11047143Y-13340071D02*
X11056667Y-13330548D01*
X11056667Y-13330548D02*
X11075714Y-13321024D01*
X11228095Y-13501976D02*
X11237619Y-13511500D01*
X11237619Y-13511500D02*
X11228095Y-13521024D01*
X11228095Y-13521024D02*
X11218571Y-13511500D01*
X11218571Y-13511500D02*
X11228095Y-13501976D01*
X11228095Y-13501976D02*
X11228095Y-13521024D01*
X11304286Y-13321024D02*
X11437619Y-13321024D01*
X11437619Y-13321024D02*
X11351905Y-13521024D01*
X11609048Y-13321024D02*
X11513809Y-13321024D01*
X11513809Y-13321024D02*
X11504286Y-13416262D01*
X11504286Y-13416262D02*
X11513809Y-13406738D01*
X11513809Y-13406738D02*
X11532857Y-13397214D01*
X11532857Y-13397214D02*
X11580476Y-13397214D01*
X11580476Y-13397214D02*
X11599524Y-13406738D01*
X11599524Y-13406738D02*
X11609048Y-13416262D01*
X11609048Y-13416262D02*
X11618571Y-13435309D01*
X11618571Y-13435309D02*
X11618571Y-13482928D01*
X11618571Y-13482928D02*
X11609048Y-13501976D01*
X11609048Y-13501976D02*
X11599524Y-13511500D01*
X11599524Y-13511500D02*
X11580476Y-13521024D01*
X11580476Y-13521024D02*
X11532857Y-13521024D01*
X11532857Y-13521024D02*
X11513809Y-13511500D01*
X11513809Y-13511500D02*
X11504286Y-13501976D01*
X11742381Y-13321024D02*
X11761429Y-13321024D01*
X11761429Y-13321024D02*
X11780476Y-13330548D01*
X11780476Y-13330548D02*
X11790000Y-13340071D01*
X11790000Y-13340071D02*
X11799524Y-13359119D01*
X11799524Y-13359119D02*
X11809048Y-13397214D01*
X11809048Y-13397214D02*
X11809048Y-13444833D01*
X11809048Y-13444833D02*
X11799524Y-13482928D01*
X11799524Y-13482928D02*
X11790000Y-13501976D01*
X11790000Y-13501976D02*
X11780476Y-13511500D01*
X11780476Y-13511500D02*
X11761429Y-13521024D01*
X11761429Y-13521024D02*
X11742381Y-13521024D01*
X11742381Y-13521024D02*
X11723333Y-13511500D01*
X11723333Y-13511500D02*
X11713809Y-13501976D01*
X11713809Y-13501976D02*
X11704286Y-13482928D01*
X11704286Y-13482928D02*
X11694762Y-13444833D01*
X11694762Y-13444833D02*
X11694762Y-13397214D01*
X11694762Y-13397214D02*
X11704286Y-13359119D01*
X11704286Y-13359119D02*
X11713809Y-13340071D01*
X11713809Y-13340071D02*
X11723333Y-13330548D01*
X11723333Y-13330548D02*
X11742381Y-13321024D01*
X11894762Y-13521024D02*
X11894762Y-13387690D01*
X11894762Y-13406738D02*
X11904286Y-13397214D01*
X11904286Y-13397214D02*
X11923333Y-13387690D01*
X11923333Y-13387690D02*
X11951905Y-13387690D01*
X11951905Y-13387690D02*
X11970952Y-13397214D01*
X11970952Y-13397214D02*
X11980476Y-13416262D01*
X11980476Y-13416262D02*
X11980476Y-13521024D01*
X11980476Y-13416262D02*
X11990000Y-13397214D01*
X11990000Y-13397214D02*
X12009048Y-13387690D01*
X12009048Y-13387690D02*
X12037619Y-13387690D01*
X12037619Y-13387690D02*
X12056667Y-13397214D01*
X12056667Y-13397214D02*
X12066190Y-13416262D01*
X12066190Y-13416262D02*
X12066190Y-13521024D01*
X12161429Y-13521024D02*
X12161429Y-13387690D01*
X12161429Y-13406738D02*
X12170952Y-13397214D01*
X12170952Y-13397214D02*
X12190000Y-13387690D01*
X12190000Y-13387690D02*
X12218571Y-13387690D01*
X12218571Y-13387690D02*
X12237619Y-13397214D01*
X12237619Y-13397214D02*
X12247143Y-13416262D01*
X12247143Y-13416262D02*
X12247143Y-13521024D01*
X12247143Y-13416262D02*
X12256667Y-13397214D01*
X12256667Y-13397214D02*
X12275714Y-13387690D01*
X12275714Y-13387690D02*
X12304286Y-13387690D01*
X12304286Y-13387690D02*
X12323333Y-13397214D01*
X12323333Y-13397214D02*
X12332857Y-13416262D01*
X12332857Y-13416262D02*
X12332857Y-13521024D01*
X12723333Y-13311500D02*
X12551905Y-13568643D01*
X12980476Y-13321024D02*
X12999524Y-13321024D01*
X12999524Y-13321024D02*
X13018572Y-13330548D01*
X13018572Y-13330548D02*
X13028095Y-13340071D01*
X13028095Y-13340071D02*
X13037619Y-13359119D01*
X13037619Y-13359119D02*
X13047143Y-13397214D01*
X13047143Y-13397214D02*
X13047143Y-13444833D01*
X13047143Y-13444833D02*
X13037619Y-13482928D01*
X13037619Y-13482928D02*
X13028095Y-13501976D01*
X13028095Y-13501976D02*
X13018572Y-13511500D01*
X13018572Y-13511500D02*
X12999524Y-13521024D01*
X12999524Y-13521024D02*
X12980476Y-13521024D01*
X12980476Y-13521024D02*
X12961429Y-13511500D01*
X12961429Y-13511500D02*
X12951905Y-13501976D01*
X12951905Y-13501976D02*
X12942381Y-13482928D01*
X12942381Y-13482928D02*
X12932857Y-13444833D01*
X12932857Y-13444833D02*
X12932857Y-13397214D01*
X12932857Y-13397214D02*
X12942381Y-13359119D01*
X12942381Y-13359119D02*
X12951905Y-13340071D01*
X12951905Y-13340071D02*
X12961429Y-13330548D01*
X12961429Y-13330548D02*
X12980476Y-13321024D01*
X13132857Y-13501976D02*
X13142381Y-13511500D01*
X13142381Y-13511500D02*
X13132857Y-13521024D01*
X13132857Y-13521024D02*
X13123333Y-13511500D01*
X13123333Y-13511500D02*
X13132857Y-13501976D01*
X13132857Y-13501976D02*
X13132857Y-13521024D01*
X13266191Y-13321024D02*
X13285238Y-13321024D01*
X13285238Y-13321024D02*
X13304286Y-13330548D01*
X13304286Y-13330548D02*
X13313810Y-13340071D01*
X13313810Y-13340071D02*
X13323333Y-13359119D01*
X13323333Y-13359119D02*
X13332857Y-13397214D01*
X13332857Y-13397214D02*
X13332857Y-13444833D01*
X13332857Y-13444833D02*
X13323333Y-13482928D01*
X13323333Y-13482928D02*
X13313810Y-13501976D01*
X13313810Y-13501976D02*
X13304286Y-13511500D01*
X13304286Y-13511500D02*
X13285238Y-13521024D01*
X13285238Y-13521024D02*
X13266191Y-13521024D01*
X13266191Y-13521024D02*
X13247143Y-13511500D01*
X13247143Y-13511500D02*
X13237619Y-13501976D01*
X13237619Y-13501976D02*
X13228095Y-13482928D01*
X13228095Y-13482928D02*
X13218572Y-13444833D01*
X13218572Y-13444833D02*
X13218572Y-13397214D01*
X13218572Y-13397214D02*
X13228095Y-13359119D01*
X13228095Y-13359119D02*
X13237619Y-13340071D01*
X13237619Y-13340071D02*
X13247143Y-13330548D01*
X13247143Y-13330548D02*
X13266191Y-13321024D01*
X13409048Y-13340071D02*
X13418572Y-13330548D01*
X13418572Y-13330548D02*
X13437619Y-13321024D01*
X13437619Y-13321024D02*
X13485238Y-13321024D01*
X13485238Y-13321024D02*
X13504286Y-13330548D01*
X13504286Y-13330548D02*
X13513810Y-13340071D01*
X13513810Y-13340071D02*
X13523333Y-13359119D01*
X13523333Y-13359119D02*
X13523333Y-13378167D01*
X13523333Y-13378167D02*
X13513810Y-13406738D01*
X13513810Y-13406738D02*
X13399524Y-13521024D01*
X13399524Y-13521024D02*
X13523333Y-13521024D01*
X13618572Y-13521024D02*
X13656667Y-13521024D01*
X13656667Y-13521024D02*
X13675714Y-13511500D01*
X13675714Y-13511500D02*
X13685238Y-13501976D01*
X13685238Y-13501976D02*
X13704286Y-13473405D01*
X13704286Y-13473405D02*
X13713810Y-13435309D01*
X13713810Y-13435309D02*
X13713810Y-13359119D01*
X13713810Y-13359119D02*
X13704286Y-13340071D01*
X13704286Y-13340071D02*
X13694762Y-13330548D01*
X13694762Y-13330548D02*
X13675714Y-13321024D01*
X13675714Y-13321024D02*
X13637619Y-13321024D01*
X13637619Y-13321024D02*
X13618572Y-13330548D01*
X13618572Y-13330548D02*
X13609048Y-13340071D01*
X13609048Y-13340071D02*
X13599524Y-13359119D01*
X13599524Y-13359119D02*
X13599524Y-13406738D01*
X13599524Y-13406738D02*
X13609048Y-13425786D01*
X13609048Y-13425786D02*
X13618572Y-13435309D01*
X13618572Y-13435309D02*
X13637619Y-13444833D01*
X13637619Y-13444833D02*
X13675714Y-13444833D01*
X13675714Y-13444833D02*
X13694762Y-13435309D01*
X13694762Y-13435309D02*
X13704286Y-13425786D01*
X13704286Y-13425786D02*
X13713810Y-13406738D01*
X13894762Y-13321024D02*
X13799524Y-13321024D01*
X13799524Y-13321024D02*
X13790000Y-13416262D01*
X13790000Y-13416262D02*
X13799524Y-13406738D01*
X13799524Y-13406738D02*
X13818572Y-13397214D01*
X13818572Y-13397214D02*
X13866191Y-13397214D01*
X13866191Y-13397214D02*
X13885238Y-13406738D01*
X13885238Y-13406738D02*
X13894762Y-13416262D01*
X13894762Y-13416262D02*
X13904286Y-13435309D01*
X13904286Y-13435309D02*
X13904286Y-13482928D01*
X13904286Y-13482928D02*
X13894762Y-13501976D01*
X13894762Y-13501976D02*
X13885238Y-13511500D01*
X13885238Y-13511500D02*
X13866191Y-13521024D01*
X13866191Y-13521024D02*
X13818572Y-13521024D01*
X13818572Y-13521024D02*
X13799524Y-13511500D01*
X13799524Y-13511500D02*
X13790000Y-13501976D01*
X13980476Y-13321024D02*
X13980476Y-13359119D01*
X14056667Y-13321024D02*
X14056667Y-13359119D01*
X14351905Y-13597214D02*
X14342381Y-13587690D01*
X14342381Y-13587690D02*
X14323334Y-13559119D01*
X14323334Y-13559119D02*
X14313810Y-13540071D01*
X14313810Y-13540071D02*
X14304286Y-13511500D01*
X14304286Y-13511500D02*
X14294762Y-13463881D01*
X14294762Y-13463881D02*
X14294762Y-13425786D01*
X14294762Y-13425786D02*
X14304286Y-13378167D01*
X14304286Y-13378167D02*
X14313810Y-13349595D01*
X14313810Y-13349595D02*
X14323334Y-13330548D01*
X14323334Y-13330548D02*
X14342381Y-13301976D01*
X14342381Y-13301976D02*
X14351905Y-13292452D01*
X14513810Y-13387690D02*
X14513810Y-13521024D01*
X14466191Y-13311500D02*
X14418572Y-13454357D01*
X14418572Y-13454357D02*
X14542381Y-13454357D01*
X14770953Y-13521024D02*
X14770953Y-13321024D01*
X14856667Y-13521024D02*
X14856667Y-13416262D01*
X14856667Y-13416262D02*
X14847143Y-13397214D01*
X14847143Y-13397214D02*
X14828096Y-13387690D01*
X14828096Y-13387690D02*
X14799524Y-13387690D01*
X14799524Y-13387690D02*
X14780476Y-13397214D01*
X14780476Y-13397214D02*
X14770953Y-13406738D01*
X14980476Y-13521024D02*
X14961429Y-13511500D01*
X14961429Y-13511500D02*
X14951905Y-13501976D01*
X14951905Y-13501976D02*
X14942381Y-13482928D01*
X14942381Y-13482928D02*
X14942381Y-13425786D01*
X14942381Y-13425786D02*
X14951905Y-13406738D01*
X14951905Y-13406738D02*
X14961429Y-13397214D01*
X14961429Y-13397214D02*
X14980476Y-13387690D01*
X14980476Y-13387690D02*
X15009048Y-13387690D01*
X15009048Y-13387690D02*
X15028096Y-13397214D01*
X15028096Y-13397214D02*
X15037619Y-13406738D01*
X15037619Y-13406738D02*
X15047143Y-13425786D01*
X15047143Y-13425786D02*
X15047143Y-13482928D01*
X15047143Y-13482928D02*
X15037619Y-13501976D01*
X15037619Y-13501976D02*
X15028096Y-13511500D01*
X15028096Y-13511500D02*
X15009048Y-13521024D01*
X15009048Y-13521024D02*
X14980476Y-13521024D01*
X15161429Y-13521024D02*
X15142381Y-13511500D01*
X15142381Y-13511500D02*
X15132857Y-13492452D01*
X15132857Y-13492452D02*
X15132857Y-13321024D01*
X15313810Y-13511500D02*
X15294762Y-13521024D01*
X15294762Y-13521024D02*
X15256667Y-13521024D01*
X15256667Y-13521024D02*
X15237619Y-13511500D01*
X15237619Y-13511500D02*
X15228096Y-13492452D01*
X15228096Y-13492452D02*
X15228096Y-13416262D01*
X15228096Y-13416262D02*
X15237619Y-13397214D01*
X15237619Y-13397214D02*
X15256667Y-13387690D01*
X15256667Y-13387690D02*
X15294762Y-13387690D01*
X15294762Y-13387690D02*
X15313810Y-13397214D01*
X15313810Y-13397214D02*
X15323334Y-13416262D01*
X15323334Y-13416262D02*
X15323334Y-13435309D01*
X15323334Y-13435309D02*
X15228096Y-13454357D01*
X15399524Y-13511500D02*
X15418572Y-13521024D01*
X15418572Y-13521024D02*
X15456667Y-13521024D01*
X15456667Y-13521024D02*
X15475715Y-13511500D01*
X15475715Y-13511500D02*
X15485238Y-13492452D01*
X15485238Y-13492452D02*
X15485238Y-13482928D01*
X15485238Y-13482928D02*
X15475715Y-13463881D01*
X15475715Y-13463881D02*
X15456667Y-13454357D01*
X15456667Y-13454357D02*
X15428096Y-13454357D01*
X15428096Y-13454357D02*
X15409048Y-13444833D01*
X15409048Y-13444833D02*
X15399524Y-13425786D01*
X15399524Y-13425786D02*
X15399524Y-13416262D01*
X15399524Y-13416262D02*
X15409048Y-13397214D01*
X15409048Y-13397214D02*
X15428096Y-13387690D01*
X15428096Y-13387690D02*
X15456667Y-13387690D01*
X15456667Y-13387690D02*
X15475715Y-13397214D01*
X15551905Y-13597214D02*
X15561429Y-13587690D01*
X15561429Y-13587690D02*
X15580477Y-13559119D01*
X15580477Y-13559119D02*
X15590000Y-13540071D01*
X15590000Y-13540071D02*
X15599524Y-13511500D01*
X15599524Y-13511500D02*
X15609048Y-13463881D01*
X15609048Y-13463881D02*
X15609048Y-13425786D01*
X15609048Y-13425786D02*
X15599524Y-13378167D01*
X15599524Y-13378167D02*
X15590000Y-13349595D01*
X15590000Y-13349595D02*
X15580477Y-13330548D01*
X15580477Y-13330548D02*
X15561429Y-13301976D01*
X15561429Y-13301976D02*
X15551905Y-13292452D01*
X10760711Y-13763211D02*
X10760711Y-13621789D01*
X10619289Y-13621789D01*
X10619289Y-13763211D01*
X10760711Y-13763211D01*
X11028095Y-13604071D02*
X11037619Y-13594548D01*
X11037619Y-13594548D02*
X11056667Y-13585024D01*
X11056667Y-13585024D02*
X11104286Y-13585024D01*
X11104286Y-13585024D02*
X11123333Y-13594548D01*
X11123333Y-13594548D02*
X11132857Y-13604071D01*
X11132857Y-13604071D02*
X11142381Y-13623119D01*
X11142381Y-13623119D02*
X11142381Y-13642167D01*
X11142381Y-13642167D02*
X11132857Y-13670738D01*
X11132857Y-13670738D02*
X11018571Y-13785024D01*
X11018571Y-13785024D02*
X11142381Y-13785024D01*
X11228095Y-13765976D02*
X11237619Y-13775500D01*
X11237619Y-13775500D02*
X11228095Y-13785024D01*
X11228095Y-13785024D02*
X11218571Y-13775500D01*
X11218571Y-13775500D02*
X11228095Y-13765976D01*
X11228095Y-13765976D02*
X11228095Y-13785024D01*
X11304286Y-13585024D02*
X11437619Y-13585024D01*
X11437619Y-13585024D02*
X11351905Y-13785024D01*
X11551905Y-13585024D02*
X11570952Y-13585024D01*
X11570952Y-13585024D02*
X11590000Y-13594548D01*
X11590000Y-13594548D02*
X11599524Y-13604071D01*
X11599524Y-13604071D02*
X11609048Y-13623119D01*
X11609048Y-13623119D02*
X11618571Y-13661214D01*
X11618571Y-13661214D02*
X11618571Y-13708833D01*
X11618571Y-13708833D02*
X11609048Y-13746928D01*
X11609048Y-13746928D02*
X11599524Y-13765976D01*
X11599524Y-13765976D02*
X11590000Y-13775500D01*
X11590000Y-13775500D02*
X11570952Y-13785024D01*
X11570952Y-13785024D02*
X11551905Y-13785024D01*
X11551905Y-13785024D02*
X11532857Y-13775500D01*
X11532857Y-13775500D02*
X11523333Y-13765976D01*
X11523333Y-13765976D02*
X11513809Y-13746928D01*
X11513809Y-13746928D02*
X11504286Y-13708833D01*
X11504286Y-13708833D02*
X11504286Y-13661214D01*
X11504286Y-13661214D02*
X11513809Y-13623119D01*
X11513809Y-13623119D02*
X11523333Y-13604071D01*
X11523333Y-13604071D02*
X11532857Y-13594548D01*
X11532857Y-13594548D02*
X11551905Y-13585024D01*
X11742381Y-13585024D02*
X11761429Y-13585024D01*
X11761429Y-13585024D02*
X11780476Y-13594548D01*
X11780476Y-13594548D02*
X11790000Y-13604071D01*
X11790000Y-13604071D02*
X11799524Y-13623119D01*
X11799524Y-13623119D02*
X11809048Y-13661214D01*
X11809048Y-13661214D02*
X11809048Y-13708833D01*
X11809048Y-13708833D02*
X11799524Y-13746928D01*
X11799524Y-13746928D02*
X11790000Y-13765976D01*
X11790000Y-13765976D02*
X11780476Y-13775500D01*
X11780476Y-13775500D02*
X11761429Y-13785024D01*
X11761429Y-13785024D02*
X11742381Y-13785024D01*
X11742381Y-13785024D02*
X11723333Y-13775500D01*
X11723333Y-13775500D02*
X11713809Y-13765976D01*
X11713809Y-13765976D02*
X11704286Y-13746928D01*
X11704286Y-13746928D02*
X11694762Y-13708833D01*
X11694762Y-13708833D02*
X11694762Y-13661214D01*
X11694762Y-13661214D02*
X11704286Y-13623119D01*
X11704286Y-13623119D02*
X11713809Y-13604071D01*
X11713809Y-13604071D02*
X11723333Y-13594548D01*
X11723333Y-13594548D02*
X11742381Y-13585024D01*
X11894762Y-13785024D02*
X11894762Y-13651690D01*
X11894762Y-13670738D02*
X11904286Y-13661214D01*
X11904286Y-13661214D02*
X11923333Y-13651690D01*
X11923333Y-13651690D02*
X11951905Y-13651690D01*
X11951905Y-13651690D02*
X11970952Y-13661214D01*
X11970952Y-13661214D02*
X11980476Y-13680262D01*
X11980476Y-13680262D02*
X11980476Y-13785024D01*
X11980476Y-13680262D02*
X11990000Y-13661214D01*
X11990000Y-13661214D02*
X12009048Y-13651690D01*
X12009048Y-13651690D02*
X12037619Y-13651690D01*
X12037619Y-13651690D02*
X12056667Y-13661214D01*
X12056667Y-13661214D02*
X12066190Y-13680262D01*
X12066190Y-13680262D02*
X12066190Y-13785024D01*
X12161429Y-13785024D02*
X12161429Y-13651690D01*
X12161429Y-13670738D02*
X12170952Y-13661214D01*
X12170952Y-13661214D02*
X12190000Y-13651690D01*
X12190000Y-13651690D02*
X12218571Y-13651690D01*
X12218571Y-13651690D02*
X12237619Y-13661214D01*
X12237619Y-13661214D02*
X12247143Y-13680262D01*
X12247143Y-13680262D02*
X12247143Y-13785024D01*
X12247143Y-13680262D02*
X12256667Y-13661214D01*
X12256667Y-13661214D02*
X12275714Y-13651690D01*
X12275714Y-13651690D02*
X12304286Y-13651690D01*
X12304286Y-13651690D02*
X12323333Y-13661214D01*
X12323333Y-13661214D02*
X12332857Y-13680262D01*
X12332857Y-13680262D02*
X12332857Y-13785024D01*
X12723333Y-13575500D02*
X12551905Y-13832643D01*
X12980476Y-13585024D02*
X12999524Y-13585024D01*
X12999524Y-13585024D02*
X13018572Y-13594548D01*
X13018572Y-13594548D02*
X13028095Y-13604071D01*
X13028095Y-13604071D02*
X13037619Y-13623119D01*
X13037619Y-13623119D02*
X13047143Y-13661214D01*
X13047143Y-13661214D02*
X13047143Y-13708833D01*
X13047143Y-13708833D02*
X13037619Y-13746928D01*
X13037619Y-13746928D02*
X13028095Y-13765976D01*
X13028095Y-13765976D02*
X13018572Y-13775500D01*
X13018572Y-13775500D02*
X12999524Y-13785024D01*
X12999524Y-13785024D02*
X12980476Y-13785024D01*
X12980476Y-13785024D02*
X12961429Y-13775500D01*
X12961429Y-13775500D02*
X12951905Y-13765976D01*
X12951905Y-13765976D02*
X12942381Y-13746928D01*
X12942381Y-13746928D02*
X12932857Y-13708833D01*
X12932857Y-13708833D02*
X12932857Y-13661214D01*
X12932857Y-13661214D02*
X12942381Y-13623119D01*
X12942381Y-13623119D02*
X12951905Y-13604071D01*
X12951905Y-13604071D02*
X12961429Y-13594548D01*
X12961429Y-13594548D02*
X12980476Y-13585024D01*
X13132857Y-13765976D02*
X13142381Y-13775500D01*
X13142381Y-13775500D02*
X13132857Y-13785024D01*
X13132857Y-13785024D02*
X13123333Y-13775500D01*
X13123333Y-13775500D02*
X13132857Y-13765976D01*
X13132857Y-13765976D02*
X13132857Y-13785024D01*
X13332857Y-13785024D02*
X13218572Y-13785024D01*
X13275714Y-13785024D02*
X13275714Y-13585024D01*
X13275714Y-13585024D02*
X13256667Y-13613595D01*
X13256667Y-13613595D02*
X13237619Y-13632643D01*
X13237619Y-13632643D02*
X13218572Y-13642167D01*
X13456667Y-13585024D02*
X13475714Y-13585024D01*
X13475714Y-13585024D02*
X13494762Y-13594548D01*
X13494762Y-13594548D02*
X13504286Y-13604071D01*
X13504286Y-13604071D02*
X13513810Y-13623119D01*
X13513810Y-13623119D02*
X13523333Y-13661214D01*
X13523333Y-13661214D02*
X13523333Y-13708833D01*
X13523333Y-13708833D02*
X13513810Y-13746928D01*
X13513810Y-13746928D02*
X13504286Y-13765976D01*
X13504286Y-13765976D02*
X13494762Y-13775500D01*
X13494762Y-13775500D02*
X13475714Y-13785024D01*
X13475714Y-13785024D02*
X13456667Y-13785024D01*
X13456667Y-13785024D02*
X13437619Y-13775500D01*
X13437619Y-13775500D02*
X13428095Y-13765976D01*
X13428095Y-13765976D02*
X13418572Y-13746928D01*
X13418572Y-13746928D02*
X13409048Y-13708833D01*
X13409048Y-13708833D02*
X13409048Y-13661214D01*
X13409048Y-13661214D02*
X13418572Y-13623119D01*
X13418572Y-13623119D02*
X13428095Y-13604071D01*
X13428095Y-13604071D02*
X13437619Y-13594548D01*
X13437619Y-13594548D02*
X13456667Y-13585024D01*
X13694762Y-13585024D02*
X13656667Y-13585024D01*
X13656667Y-13585024D02*
X13637619Y-13594548D01*
X13637619Y-13594548D02*
X13628095Y-13604071D01*
X13628095Y-13604071D02*
X13609048Y-13632643D01*
X13609048Y-13632643D02*
X13599524Y-13670738D01*
X13599524Y-13670738D02*
X13599524Y-13746928D01*
X13599524Y-13746928D02*
X13609048Y-13765976D01*
X13609048Y-13765976D02*
X13618572Y-13775500D01*
X13618572Y-13775500D02*
X13637619Y-13785024D01*
X13637619Y-13785024D02*
X13675714Y-13785024D01*
X13675714Y-13785024D02*
X13694762Y-13775500D01*
X13694762Y-13775500D02*
X13704286Y-13765976D01*
X13704286Y-13765976D02*
X13713810Y-13746928D01*
X13713810Y-13746928D02*
X13713810Y-13699309D01*
X13713810Y-13699309D02*
X13704286Y-13680262D01*
X13704286Y-13680262D02*
X13694762Y-13670738D01*
X13694762Y-13670738D02*
X13675714Y-13661214D01*
X13675714Y-13661214D02*
X13637619Y-13661214D01*
X13637619Y-13661214D02*
X13618572Y-13670738D01*
X13618572Y-13670738D02*
X13609048Y-13680262D01*
X13609048Y-13680262D02*
X13599524Y-13699309D01*
X13780476Y-13585024D02*
X13904286Y-13585024D01*
X13904286Y-13585024D02*
X13837619Y-13661214D01*
X13837619Y-13661214D02*
X13866191Y-13661214D01*
X13866191Y-13661214D02*
X13885238Y-13670738D01*
X13885238Y-13670738D02*
X13894762Y-13680262D01*
X13894762Y-13680262D02*
X13904286Y-13699309D01*
X13904286Y-13699309D02*
X13904286Y-13746928D01*
X13904286Y-13746928D02*
X13894762Y-13765976D01*
X13894762Y-13765976D02*
X13885238Y-13775500D01*
X13885238Y-13775500D02*
X13866191Y-13785024D01*
X13866191Y-13785024D02*
X13809048Y-13785024D01*
X13809048Y-13785024D02*
X13790000Y-13775500D01*
X13790000Y-13775500D02*
X13780476Y-13765976D01*
X13980476Y-13585024D02*
X13980476Y-13623119D01*
X14056667Y-13585024D02*
X14056667Y-13623119D01*
X14351905Y-13861214D02*
X14342381Y-13851690D01*
X14342381Y-13851690D02*
X14323334Y-13823119D01*
X14323334Y-13823119D02*
X14313810Y-13804071D01*
X14313810Y-13804071D02*
X14304286Y-13775500D01*
X14304286Y-13775500D02*
X14294762Y-13727881D01*
X14294762Y-13727881D02*
X14294762Y-13689786D01*
X14294762Y-13689786D02*
X14304286Y-13642167D01*
X14304286Y-13642167D02*
X14313810Y-13613595D01*
X14313810Y-13613595D02*
X14323334Y-13594548D01*
X14323334Y-13594548D02*
X14342381Y-13565976D01*
X14342381Y-13565976D02*
X14351905Y-13556452D01*
X14513810Y-13651690D02*
X14513810Y-13785024D01*
X14466191Y-13575500D02*
X14418572Y-13718357D01*
X14418572Y-13718357D02*
X14542381Y-13718357D01*
X14770953Y-13785024D02*
X14770953Y-13585024D01*
X14856667Y-13785024D02*
X14856667Y-13680262D01*
X14856667Y-13680262D02*
X14847143Y-13661214D01*
X14847143Y-13661214D02*
X14828096Y-13651690D01*
X14828096Y-13651690D02*
X14799524Y-13651690D01*
X14799524Y-13651690D02*
X14780476Y-13661214D01*
X14780476Y-13661214D02*
X14770953Y-13670738D01*
X14980476Y-13785024D02*
X14961429Y-13775500D01*
X14961429Y-13775500D02*
X14951905Y-13765976D01*
X14951905Y-13765976D02*
X14942381Y-13746928D01*
X14942381Y-13746928D02*
X14942381Y-13689786D01*
X14942381Y-13689786D02*
X14951905Y-13670738D01*
X14951905Y-13670738D02*
X14961429Y-13661214D01*
X14961429Y-13661214D02*
X14980476Y-13651690D01*
X14980476Y-13651690D02*
X15009048Y-13651690D01*
X15009048Y-13651690D02*
X15028096Y-13661214D01*
X15028096Y-13661214D02*
X15037619Y-13670738D01*
X15037619Y-13670738D02*
X15047143Y-13689786D01*
X15047143Y-13689786D02*
X15047143Y-13746928D01*
X15047143Y-13746928D02*
X15037619Y-13765976D01*
X15037619Y-13765976D02*
X15028096Y-13775500D01*
X15028096Y-13775500D02*
X15009048Y-13785024D01*
X15009048Y-13785024D02*
X14980476Y-13785024D01*
X15161429Y-13785024D02*
X15142381Y-13775500D01*
X15142381Y-13775500D02*
X15132857Y-13756452D01*
X15132857Y-13756452D02*
X15132857Y-13585024D01*
X15313810Y-13775500D02*
X15294762Y-13785024D01*
X15294762Y-13785024D02*
X15256667Y-13785024D01*
X15256667Y-13785024D02*
X15237619Y-13775500D01*
X15237619Y-13775500D02*
X15228096Y-13756452D01*
X15228096Y-13756452D02*
X15228096Y-13680262D01*
X15228096Y-13680262D02*
X15237619Y-13661214D01*
X15237619Y-13661214D02*
X15256667Y-13651690D01*
X15256667Y-13651690D02*
X15294762Y-13651690D01*
X15294762Y-13651690D02*
X15313810Y-13661214D01*
X15313810Y-13661214D02*
X15323334Y-13680262D01*
X15323334Y-13680262D02*
X15323334Y-13699309D01*
X15323334Y-13699309D02*
X15228096Y-13718357D01*
X15399524Y-13775500D02*
X15418572Y-13785024D01*
X15418572Y-13785024D02*
X15456667Y-13785024D01*
X15456667Y-13785024D02*
X15475715Y-13775500D01*
X15475715Y-13775500D02*
X15485238Y-13756452D01*
X15485238Y-13756452D02*
X15485238Y-13746928D01*
X15485238Y-13746928D02*
X15475715Y-13727881D01*
X15475715Y-13727881D02*
X15456667Y-13718357D01*
X15456667Y-13718357D02*
X15428096Y-13718357D01*
X15428096Y-13718357D02*
X15409048Y-13708833D01*
X15409048Y-13708833D02*
X15399524Y-13689786D01*
X15399524Y-13689786D02*
X15399524Y-13680262D01*
X15399524Y-13680262D02*
X15409048Y-13661214D01*
X15409048Y-13661214D02*
X15428096Y-13651690D01*
X15428096Y-13651690D02*
X15456667Y-13651690D01*
X15456667Y-13651690D02*
X15475715Y-13661214D01*
X15551905Y-13861214D02*
X15561429Y-13851690D01*
X15561429Y-13851690D02*
X15580477Y-13823119D01*
X15580477Y-13823119D02*
X15590000Y-13804071D01*
X15590000Y-13804071D02*
X15599524Y-13775500D01*
X15599524Y-13775500D02*
X15609048Y-13727881D01*
X15609048Y-13727881D02*
X15609048Y-13689786D01*
X15609048Y-13689786D02*
X15599524Y-13642167D01*
X15599524Y-13642167D02*
X15590000Y-13613595D01*
X15590000Y-13613595D02*
X15580477Y-13594548D01*
X15580477Y-13594548D02*
X15561429Y-13565976D01*
X15561429Y-13565976D02*
X15551905Y-13556452D01*
M02*
