M48
; DRILL file {KiCad 7.0.2} date Wed Jul 12 23:30:12 2023
; FORMAT={-:-/ absolute / metric / decimal}
; #@! TF.CreationDate,2023-07-12T23:30:12-04:00
; #@! TF.GenerationSoftware,Kicad,Pcbnew,7.0.2
; #@! TF.FileFunction,Plated,1,2,PTH
FMAT,2
METRIC
; #@! TA.AperFunction,Plated,PTH,ViaDrill
T1C0.400
; #@! TA.AperFunction,Plated,PTH,ComponentDrill
T2C0.600
; #@! TA.AperFunction,Plated,PTH,ComponentDrill
T3C0.750
; #@! TA.AperFunction,Plated,PTH,ComponentDrill
T4C2.700
%
G90
G05
T1
X109.855Y-88.9
X109.855Y-90.17
X109.855Y-91.44
X109.855Y-92.71
X109.855Y-93.98
X109.855Y-95.25
X109.855Y-114.3
X109.855Y-115.57
X109.855Y-116.84
X109.855Y-118.11
X109.855Y-119.38
X109.855Y-120.65
X111.125Y-88.9
X111.125Y-90.17
X111.125Y-91.44
X111.125Y-92.71
X111.125Y-93.98
X111.125Y-95.25
X111.125Y-114.3
X111.125Y-115.57
X111.125Y-116.84
X111.125Y-118.11
X111.125Y-119.38
X111.125Y-120.65
X112.395Y-88.9
X112.395Y-90.17
X112.395Y-91.44
X112.395Y-92.71
X112.395Y-93.98
X112.395Y-95.25
X112.395Y-114.3
X112.395Y-115.57
X112.395Y-116.84
X112.395Y-118.11
X112.395Y-119.38
X112.395Y-120.65
X113.665Y-88.9
X113.665Y-90.17
X113.665Y-91.44
X113.665Y-92.71
X113.665Y-93.98
X113.665Y-95.25
X113.665Y-114.3
X113.665Y-115.57
X113.665Y-116.84
X113.665Y-118.11
X113.665Y-119.38
X113.665Y-120.65
X114.935Y-88.9
X114.935Y-90.17
X114.935Y-91.44
X114.935Y-92.71
X114.935Y-93.98
X114.935Y-95.25
X114.935Y-114.3
X114.935Y-115.57
X114.935Y-116.84
X114.935Y-118.11
X114.935Y-119.38
X114.935Y-120.65
X116.205Y-88.9
X116.205Y-90.17
X116.205Y-91.44
X116.205Y-92.71
X116.205Y-93.98
X116.205Y-95.25
X116.205Y-114.3
X116.205Y-115.57
X116.205Y-116.84
X116.205Y-118.11
X116.205Y-119.38
X116.205Y-120.65
X117.475Y-88.9
X117.475Y-90.17
X117.475Y-91.44
X117.475Y-92.71
X117.475Y-93.98
X117.475Y-95.25
X117.475Y-114.3
X117.475Y-115.57
X117.475Y-116.84
X117.475Y-118.11
X117.475Y-119.38
X117.475Y-120.65
X118.745Y-88.9
X118.745Y-90.17
X118.745Y-91.44
X118.745Y-92.71
X118.745Y-93.98
X118.745Y-95.25
X118.745Y-114.3
X118.745Y-115.57
X118.745Y-116.84
X118.745Y-118.11
X118.745Y-119.38
X118.745Y-120.65
X120.015Y-88.9
X120.015Y-90.17
X120.015Y-91.44
X120.015Y-92.71
X120.015Y-93.98
X120.015Y-95.25
X120.015Y-114.3
X120.015Y-115.57
X120.015Y-116.84
X120.015Y-118.11
X120.015Y-119.38
X120.015Y-120.65
X121.285Y-88.9
X121.285Y-90.17
X121.285Y-91.44
X121.285Y-92.71
X121.285Y-93.98
X121.285Y-95.25
X121.285Y-114.3
X121.285Y-115.57
X121.285Y-116.84
X121.285Y-118.11
X121.285Y-119.38
X121.285Y-120.65
X136.906Y-109.093
X142.24Y-99.06
X142.24Y-100.33
X142.24Y-101.6
X142.24Y-102.87
X142.24Y-104.14
X143.51Y-99.06
X143.51Y-100.33
X143.51Y-101.6
X143.51Y-102.87
X143.51Y-104.14
X144.78Y-99.06
X144.78Y-100.33
X144.78Y-101.6
X144.78Y-102.87
X144.78Y-104.14
X144.78Y-107.95
X144.78Y-109.22
X144.78Y-110.49
X144.78Y-111.76
X144.78Y-113.03
X144.78Y-114.3
X144.78Y-115.57
X144.78Y-116.84
X146.05Y-99.06
X146.05Y-100.33
X146.05Y-101.6
X146.05Y-102.87
X146.05Y-104.14
X146.05Y-107.95
X146.05Y-109.22
X146.05Y-110.49
X146.05Y-111.76
X146.05Y-113.03
X146.05Y-114.3
X146.05Y-115.57
X146.05Y-116.84
X147.32Y-99.06
X147.32Y-100.33
X147.32Y-101.6
X147.32Y-102.87
X147.32Y-104.14
X147.32Y-110.49
X147.32Y-111.76
X147.32Y-113.03
X147.32Y-114.3
X147.32Y-115.57
X147.32Y-116.84
X148.59Y-99.06
X148.59Y-100.33
X148.59Y-101.6
X148.59Y-102.87
X148.59Y-104.14
X148.59Y-107.95
X148.59Y-109.22
X148.59Y-110.49
X148.59Y-111.76
X148.59Y-113.03
X148.59Y-114.3
X148.59Y-115.57
X148.59Y-116.84
X149.86Y-99.06
X149.86Y-100.33
X149.86Y-101.6
X149.86Y-102.87
X149.86Y-104.14
X149.86Y-110.49
X149.86Y-111.76
X149.86Y-113.03
X149.86Y-114.3
X149.86Y-115.57
X149.86Y-116.84
X151.13Y-99.06
X151.13Y-100.33
X151.13Y-101.6
X151.13Y-102.87
X151.13Y-104.14
X152.4Y-99.06
X152.4Y-100.33
X152.4Y-101.6
X152.4Y-102.87
X152.4Y-104.14
X153.035Y-107.95
X153.035Y-109.22
X153.035Y-110.49
X153.035Y-111.76
X153.035Y-113.03
X153.035Y-114.3
X153.035Y-115.57
X153.035Y-116.84
X153.67Y-99.06
X153.67Y-100.33
X153.67Y-101.6
X153.67Y-102.87
X153.67Y-104.14
X154.305Y-107.95
X154.305Y-109.22
X154.305Y-110.49
X154.305Y-111.76
X154.305Y-113.03
X154.305Y-114.3
X154.305Y-115.57
X154.305Y-116.84
X154.94Y-99.06
X154.94Y-100.33
X154.94Y-101.6
X154.94Y-102.87
X154.94Y-104.14
X155.575Y-110.49
X155.575Y-111.76
X155.575Y-113.03
X155.575Y-114.3
X155.575Y-115.57
X155.575Y-116.84
X156.21Y-99.06
X156.21Y-100.33
X156.21Y-101.6
X156.21Y-102.87
X156.21Y-104.14
X156.845Y-107.95
X156.845Y-109.22
X156.845Y-110.49
X156.845Y-111.76
X156.845Y-113.03
X156.845Y-114.3
X156.845Y-115.57
X156.845Y-116.84
X157.48Y-99.06
X157.48Y-100.33
X157.48Y-101.6
X157.48Y-102.87
X157.48Y-104.14
X158.115Y-110.49
X158.115Y-111.76
X158.115Y-113.03
X158.115Y-114.3
X158.115Y-115.57
X158.115Y-116.84
X158.75Y-99.06
X158.75Y-100.33
X158.75Y-101.6
X158.75Y-102.87
X158.75Y-104.14
X160.02Y-99.06
X160.02Y-100.33
X160.02Y-101.6
X160.02Y-102.87
X160.02Y-104.14
X161.29Y-99.06
X161.29Y-100.33
X161.29Y-101.6
X161.29Y-102.87
X161.29Y-104.14
X161.29Y-107.95
X161.29Y-109.22
X161.29Y-110.49
X161.29Y-111.633
X161.29Y-112.903
X161.29Y-114.173
X161.29Y-115.443
X161.29Y-116.713
X162.56Y-99.06
X162.56Y-100.33
X162.56Y-101.6
X162.56Y-102.87
X162.56Y-104.14
X162.56Y-107.95
X162.56Y-109.22
X162.56Y-110.49
X162.56Y-111.633
X162.56Y-112.903
X162.56Y-114.173
X162.56Y-115.443
X162.56Y-116.713
X163.83Y-99.06
X163.83Y-100.33
X163.83Y-101.6
X163.83Y-102.87
X163.83Y-104.14
X163.83Y-110.49
X163.83Y-111.633
X163.83Y-112.903
X163.83Y-114.173
X163.83Y-115.443
X163.83Y-116.713
X165.1Y-100.33
X165.1Y-101.6
X165.1Y-102.87
X165.1Y-104.14
X165.1Y-109.22
X165.1Y-110.49
X165.1Y-111.633
X165.1Y-112.903
X165.1Y-114.173
X165.1Y-115.443
X165.1Y-116.713
X169.545Y-97.411
X180.34Y-88.9
X180.34Y-90.17
X180.34Y-91.44
X180.34Y-92.71
X180.34Y-93.98
X180.34Y-95.25
X180.34Y-114.3
X180.34Y-115.57
X180.34Y-116.84
X180.34Y-118.11
X180.34Y-119.38
X180.34Y-120.65
X181.61Y-88.9
X181.61Y-90.17
X181.61Y-91.44
X181.61Y-92.71
X181.61Y-93.98
X181.61Y-95.25
X181.61Y-114.3
X181.61Y-115.57
X181.61Y-116.84
X181.61Y-118.11
X181.61Y-119.38
X181.61Y-120.65
X182.88Y-88.9
X182.88Y-90.17
X182.88Y-91.44
X182.88Y-92.71
X182.88Y-93.98
X182.88Y-95.25
X182.88Y-114.3
X182.88Y-115.57
X182.88Y-116.84
X182.88Y-118.11
X182.88Y-119.38
X182.88Y-120.65
X184.15Y-88.9
X184.15Y-90.17
X184.15Y-91.44
X184.15Y-92.71
X184.15Y-93.98
X184.15Y-95.25
X184.15Y-114.3
X184.15Y-115.57
X184.15Y-116.84
X184.15Y-118.11
X184.15Y-119.38
X184.15Y-120.65
X185.42Y-88.9
X185.42Y-90.17
X185.42Y-91.44
X185.42Y-92.71
X185.42Y-93.98
X185.42Y-95.25
X185.42Y-114.3
X185.42Y-115.57
X185.42Y-116.84
X185.42Y-118.11
X185.42Y-119.38
X185.42Y-120.65
X186.69Y-88.9
X186.69Y-90.17
X186.69Y-91.44
X186.69Y-92.71
X186.69Y-93.98
X186.69Y-95.25
X186.69Y-114.3
X186.69Y-115.57
X186.69Y-116.84
X186.69Y-118.11
X186.69Y-119.38
X186.69Y-120.65
X187.96Y-88.9
X187.96Y-90.17
X187.96Y-91.44
X187.96Y-92.71
X187.96Y-93.98
X187.96Y-95.25
X187.96Y-114.3
X187.96Y-115.57
X187.96Y-116.84
X187.96Y-118.11
X187.96Y-119.38
X187.96Y-120.65
X189.23Y-88.9
X189.23Y-90.17
X189.23Y-91.44
X189.23Y-92.71
X189.23Y-93.98
X189.23Y-95.25
X189.23Y-114.3
X189.23Y-115.57
X189.23Y-116.84
X189.23Y-118.11
X189.23Y-119.38
X189.23Y-120.65
X190.5Y-88.9
X190.5Y-90.17
X190.5Y-91.44
X190.5Y-92.71
X190.5Y-93.98
X190.5Y-95.25
X190.5Y-114.3
X190.5Y-115.57
X190.5Y-116.84
X190.5Y-118.11
X190.5Y-119.38
X190.5Y-120.65
X191.77Y-88.9
X191.77Y-90.17
X191.77Y-91.44
X191.77Y-92.71
X191.77Y-93.98
X191.77Y-95.25
X191.77Y-114.3
X191.77Y-115.57
X191.77Y-116.84
X191.77Y-118.11
X191.77Y-119.38
X191.77Y-120.65
T3
X134.747Y-115.824
X136.747Y-115.824
X167.513Y-115.824
X169.513Y-115.824
T4
X125.26Y-101.175
X125.26Y-108.375
X177.538Y-101.175
X177.538Y-108.375
T2
X118.71Y-98.025G85X119.81Y-98.025
G05
X118.71Y-111.525G85X119.81Y-111.525
G05
X184.088Y-98.025G85X182.988Y-98.025
G05
X184.088Y-111.525G85X182.988Y-111.525
G05
T0
M30
